G04 (created by PCBNEW-RS274X (2012-01-19 BZR 3256)-stable) date 6/8/2014 1:57:20 PM*
G01*
G70*
G90*
%MOIN*%
G04 Gerber Fmt 3.4, Leading zero omitted, Abs format*
%FSLAX34Y34*%
G04 APERTURE LIST*
%ADD10C,0.006000*%
%ADD11C,0.011000*%
%ADD12C,0.015000*%
G04 APERTURE END LIST*
G54D10*
G54D11*
X73100Y-57711D02*
X73014Y-57739D01*
X72871Y-57739D01*
X72814Y-57711D01*
X72785Y-57682D01*
X72757Y-57626D01*
X72757Y-57570D01*
X72785Y-57514D01*
X72814Y-57485D01*
X72871Y-57457D01*
X72985Y-57429D01*
X73043Y-57401D01*
X73071Y-57373D01*
X73100Y-57317D01*
X73100Y-57260D01*
X73071Y-57204D01*
X73043Y-57176D01*
X72985Y-57148D01*
X72843Y-57148D01*
X72757Y-57176D01*
X72500Y-57682D02*
X72472Y-57711D01*
X72500Y-57739D01*
X72529Y-57711D01*
X72500Y-57682D01*
X72500Y-57739D01*
X72214Y-57739D02*
X72214Y-57148D01*
X72071Y-57148D01*
X71986Y-57176D01*
X71928Y-57232D01*
X71900Y-57288D01*
X71871Y-57401D01*
X71871Y-57485D01*
X71900Y-57598D01*
X71928Y-57654D01*
X71986Y-57711D01*
X72071Y-57739D01*
X72214Y-57739D01*
X71614Y-57682D02*
X71586Y-57711D01*
X71614Y-57739D01*
X71643Y-57711D01*
X71614Y-57682D01*
X71614Y-57739D01*
X71014Y-57176D02*
X71071Y-57148D01*
X71157Y-57148D01*
X71242Y-57176D01*
X71300Y-57232D01*
X71328Y-57288D01*
X71357Y-57401D01*
X71357Y-57485D01*
X71328Y-57598D01*
X71300Y-57654D01*
X71242Y-57711D01*
X71157Y-57739D01*
X71100Y-57739D01*
X71014Y-57711D01*
X70985Y-57682D01*
X70985Y-57485D01*
X71100Y-57485D01*
X70728Y-57682D02*
X70700Y-57711D01*
X70728Y-57739D01*
X70757Y-57711D01*
X70728Y-57682D01*
X70728Y-57739D01*
X69098Y-35876D02*
X69155Y-35848D01*
X69241Y-35848D01*
X69326Y-35876D01*
X69384Y-35932D01*
X69412Y-35988D01*
X69441Y-36101D01*
X69441Y-36185D01*
X69412Y-36298D01*
X69384Y-36354D01*
X69326Y-36411D01*
X69241Y-36439D01*
X69184Y-36439D01*
X69098Y-36411D01*
X69069Y-36382D01*
X69069Y-36185D01*
X69184Y-36185D01*
X68612Y-36129D02*
X68526Y-36157D01*
X68498Y-36185D01*
X68469Y-36242D01*
X68469Y-36326D01*
X68498Y-36382D01*
X68526Y-36411D01*
X68584Y-36439D01*
X68812Y-36439D01*
X68812Y-35848D01*
X68612Y-35848D01*
X68555Y-35876D01*
X68526Y-35904D01*
X68498Y-35960D01*
X68498Y-36017D01*
X68526Y-36073D01*
X68555Y-36101D01*
X68612Y-36129D01*
X68812Y-36129D01*
X68241Y-36270D02*
X67955Y-36270D01*
X68298Y-36439D02*
X68098Y-35848D01*
X67898Y-36439D01*
X67841Y-36495D02*
X67384Y-36495D01*
X67041Y-36129D02*
X66955Y-36157D01*
X66927Y-36185D01*
X66898Y-36242D01*
X66898Y-36326D01*
X66927Y-36382D01*
X66955Y-36411D01*
X67013Y-36439D01*
X67241Y-36439D01*
X67241Y-35848D01*
X67041Y-35848D01*
X66984Y-35876D01*
X66955Y-35904D01*
X66927Y-35960D01*
X66927Y-36017D01*
X66955Y-36073D01*
X66984Y-36101D01*
X67041Y-36129D01*
X67241Y-36129D01*
X66641Y-36439D02*
X66641Y-36045D01*
X66641Y-36157D02*
X66613Y-36101D01*
X66584Y-36073D01*
X66527Y-36045D01*
X66470Y-36045D01*
X66270Y-36439D02*
X66270Y-36045D01*
X66270Y-35848D02*
X66299Y-35876D01*
X66270Y-35904D01*
X66242Y-35876D01*
X66270Y-35848D01*
X66270Y-35904D01*
X65727Y-36439D02*
X65727Y-35848D01*
X65727Y-36411D02*
X65784Y-36439D01*
X65898Y-36439D01*
X65956Y-36411D01*
X65984Y-36382D01*
X66013Y-36326D01*
X66013Y-36157D01*
X65984Y-36101D01*
X65956Y-36073D01*
X65898Y-36045D01*
X65784Y-36045D01*
X65727Y-36073D01*
X65184Y-36045D02*
X65184Y-36523D01*
X65213Y-36579D01*
X65241Y-36608D01*
X65298Y-36636D01*
X65384Y-36636D01*
X65441Y-36608D01*
X65184Y-36411D02*
X65241Y-36439D01*
X65355Y-36439D01*
X65413Y-36411D01*
X65441Y-36382D01*
X65470Y-36326D01*
X65470Y-36157D01*
X65441Y-36101D01*
X65413Y-36073D01*
X65355Y-36045D01*
X65241Y-36045D01*
X65184Y-36073D01*
X64670Y-36411D02*
X64727Y-36439D01*
X64841Y-36439D01*
X64898Y-36411D01*
X64927Y-36354D01*
X64927Y-36129D01*
X64898Y-36073D01*
X64841Y-36045D01*
X64727Y-36045D01*
X64670Y-36073D01*
X64641Y-36129D01*
X64641Y-36185D01*
X64927Y-36242D01*
X63984Y-36045D02*
X63841Y-36439D01*
X63699Y-36045D01*
X63527Y-35848D02*
X63156Y-35848D01*
X63356Y-36073D01*
X63270Y-36073D01*
X63213Y-36101D01*
X63184Y-36129D01*
X63156Y-36185D01*
X63156Y-36326D01*
X63184Y-36382D01*
X63213Y-36411D01*
X63270Y-36439D01*
X63442Y-36439D01*
X63499Y-36411D01*
X63527Y-36382D01*
X62871Y-36411D02*
X62871Y-36439D01*
X62899Y-36495D01*
X62928Y-36523D01*
X61985Y-35848D02*
X61985Y-36270D01*
X62013Y-36354D01*
X62070Y-36411D01*
X62156Y-36439D01*
X62213Y-36439D01*
X61699Y-36382D02*
X61671Y-36411D01*
X61699Y-36439D01*
X61728Y-36411D01*
X61699Y-36382D01*
X61699Y-36439D01*
X60642Y-35876D02*
X60699Y-35848D01*
X60785Y-35848D01*
X60870Y-35876D01*
X60928Y-35932D01*
X60956Y-35988D01*
X60985Y-36101D01*
X60985Y-36185D01*
X60956Y-36298D01*
X60928Y-36354D01*
X60870Y-36411D01*
X60785Y-36439D01*
X60728Y-36439D01*
X60642Y-36411D01*
X60613Y-36382D01*
X60613Y-36185D01*
X60728Y-36185D01*
X60356Y-36439D02*
X60356Y-36045D01*
X60356Y-36157D02*
X60328Y-36101D01*
X60299Y-36073D01*
X60242Y-36045D01*
X60185Y-36045D01*
X59757Y-36411D02*
X59814Y-36439D01*
X59928Y-36439D01*
X59985Y-36411D01*
X60014Y-36354D01*
X60014Y-36129D01*
X59985Y-36073D01*
X59928Y-36045D01*
X59814Y-36045D01*
X59757Y-36073D01*
X59728Y-36129D01*
X59728Y-36185D01*
X60014Y-36242D01*
X59243Y-36411D02*
X59300Y-36439D01*
X59414Y-36439D01*
X59471Y-36411D01*
X59500Y-36354D01*
X59500Y-36129D01*
X59471Y-36073D01*
X59414Y-36045D01*
X59300Y-36045D01*
X59243Y-36073D01*
X59214Y-36129D01*
X59214Y-36185D01*
X59500Y-36242D01*
X58957Y-36045D02*
X58957Y-36439D01*
X58957Y-36101D02*
X58929Y-36073D01*
X58871Y-36045D01*
X58786Y-36045D01*
X58729Y-36073D01*
X58700Y-36129D01*
X58700Y-36439D01*
X58471Y-36045D02*
X58357Y-36439D01*
X58243Y-36157D01*
X58128Y-36439D01*
X58014Y-36045D01*
X57557Y-36411D02*
X57614Y-36439D01*
X57728Y-36439D01*
X57785Y-36411D01*
X57814Y-36354D01*
X57814Y-36129D01*
X57785Y-36073D01*
X57728Y-36045D01*
X57614Y-36045D01*
X57557Y-36073D01*
X57528Y-36129D01*
X57528Y-36185D01*
X57814Y-36242D01*
X57185Y-36439D02*
X57243Y-36411D01*
X57271Y-36354D01*
X57271Y-35848D01*
X56871Y-36439D02*
X56929Y-36411D01*
X56957Y-36354D01*
X56957Y-35848D01*
X56215Y-35904D02*
X56186Y-35876D01*
X56129Y-35848D01*
X55986Y-35848D01*
X55929Y-35876D01*
X55900Y-35904D01*
X55872Y-35960D01*
X55872Y-36017D01*
X55900Y-36101D01*
X56243Y-36439D01*
X55872Y-36439D01*
X55501Y-35848D02*
X55444Y-35848D01*
X55387Y-35876D01*
X55358Y-35904D01*
X55329Y-35960D01*
X55301Y-36073D01*
X55301Y-36214D01*
X55329Y-36326D01*
X55358Y-36382D01*
X55387Y-36411D01*
X55444Y-36439D01*
X55501Y-36439D01*
X55558Y-36411D01*
X55587Y-36382D01*
X55615Y-36326D01*
X55644Y-36214D01*
X55644Y-36073D01*
X55615Y-35960D01*
X55587Y-35904D01*
X55558Y-35876D01*
X55501Y-35848D01*
X54730Y-36439D02*
X55073Y-36439D01*
X54901Y-36439D02*
X54901Y-35848D01*
X54958Y-35932D01*
X55016Y-35988D01*
X55073Y-36017D01*
X54216Y-36045D02*
X54216Y-36439D01*
X54359Y-35820D02*
X54502Y-36242D01*
X54130Y-36242D01*
G54D12*
X73750Y-58500D02*
X65000Y-58500D01*
X77750Y-54500D02*
X73750Y-58500D01*
X47750Y-35000D02*
X48250Y-35000D01*
X47750Y-56250D02*
X47750Y-35000D01*
X65000Y-58500D02*
X47750Y-58500D01*
X77750Y-42000D02*
X77750Y-54500D01*
X74500Y-38750D02*
X77750Y-42000D01*
X74500Y-35000D02*
X74500Y-38750D01*
X48250Y-35000D02*
X74500Y-35000D01*
X47750Y-58500D02*
X47750Y-56250D01*
M02*
