G04 (created by PCBNEW-RS274X (2012-01-19 BZR 3256)-stable) date 6/8/2014 1:57:20 PM*
G01*
G70*
G90*
%MOIN*%
G04 Gerber Fmt 3.4, Leading zero omitted, Abs format*
%FSLAX34Y34*%
G04 APERTURE LIST*
%ADD10C,0.006000*%
%ADD11C,0.015000*%
%ADD12R,0.059100X0.039400*%
%ADD13C,0.055100*%
%ADD14R,0.078700X0.047200*%
%ADD15R,0.017700X0.059100*%
%ADD16R,0.059100X0.017700*%
%ADD17R,0.053100X0.015700*%
%ADD18R,0.055100X0.063000*%
%ADD19R,0.074800X0.063000*%
%ADD20C,0.043300*%
%ADD21R,0.144000X0.080000*%
%ADD22R,0.040000X0.080000*%
%ADD23C,0.074800*%
%ADD24R,0.037400X0.078700*%
%ADD25R,0.118100X0.157500*%
%ADD26R,0.043300X0.074800*%
%ADD27C,0.063000*%
%ADD28R,0.025000X0.045000*%
%ADD29R,0.045000X0.025000*%
%ADD30R,0.060000X0.060000*%
%ADD31C,0.060000*%
%ADD32R,0.031400X0.031400*%
%ADD33C,0.037400*%
%ADD34C,0.035000*%
%ADD35C,0.013400*%
%ADD36C,0.008000*%
%ADD37C,0.010000*%
G04 APERTURE END LIST*
G54D10*
G54D11*
X73750Y-58500D02*
X65000Y-58500D01*
X77750Y-54500D02*
X73750Y-58500D01*
X47750Y-35000D02*
X48250Y-35000D01*
X47750Y-56250D02*
X47750Y-35000D01*
X65000Y-58500D02*
X47750Y-58500D01*
X77750Y-42000D02*
X77750Y-54500D01*
X74500Y-38750D02*
X77750Y-42000D01*
X74500Y-35000D02*
X74500Y-38750D01*
X48250Y-35000D02*
X74500Y-35000D01*
X47750Y-58500D02*
X47750Y-56250D01*
G54D12*
X67617Y-47980D03*
X67617Y-48630D03*
X67617Y-47311D03*
X67617Y-46642D03*
X67617Y-45657D03*
X67617Y-44673D03*
X67617Y-49614D03*
X67617Y-50579D03*
X67617Y-51535D03*
X67617Y-52205D03*
G54D13*
X77183Y-43551D03*
X77183Y-53059D03*
G54D14*
X75884Y-42646D03*
X76357Y-53669D03*
G54D12*
X67617Y-53531D03*
G54D15*
X56538Y-49851D03*
X56853Y-49851D03*
X57168Y-49851D03*
X57483Y-49851D03*
X57798Y-49851D03*
X58113Y-49851D03*
X58428Y-49851D03*
X58743Y-49851D03*
X59057Y-49851D03*
X59372Y-49851D03*
X59687Y-49851D03*
X60002Y-49851D03*
X60317Y-49851D03*
X60632Y-49851D03*
X60947Y-49851D03*
X61262Y-49851D03*
X61262Y-43749D03*
X60947Y-43749D03*
X60632Y-43749D03*
X60317Y-43749D03*
X60002Y-43749D03*
X59687Y-43749D03*
X59372Y-43749D03*
X59057Y-43749D03*
X58743Y-43749D03*
X58428Y-43749D03*
X58113Y-43749D03*
X57798Y-43749D03*
X57483Y-43749D03*
X57168Y-43749D03*
X56853Y-43749D03*
X56538Y-43749D03*
G54D16*
X61951Y-49162D03*
X61951Y-48847D03*
X61951Y-48532D03*
X61951Y-48217D03*
X61951Y-47902D03*
X61951Y-47587D03*
X61951Y-47272D03*
X61951Y-46957D03*
X61951Y-46643D03*
X61951Y-46328D03*
X61951Y-46013D03*
X61951Y-45698D03*
X61951Y-45383D03*
X61951Y-45068D03*
X61951Y-44753D03*
X61951Y-44438D03*
X55849Y-44438D03*
X55849Y-44753D03*
X55849Y-45068D03*
X55849Y-45383D03*
X55849Y-45698D03*
X55849Y-46013D03*
X55849Y-46328D03*
X55849Y-46643D03*
X55849Y-46957D03*
X55849Y-47272D03*
X55849Y-47587D03*
X55849Y-47902D03*
X55849Y-48217D03*
X55849Y-48532D03*
X55849Y-48847D03*
X55849Y-49162D03*
G54D17*
X49553Y-43488D03*
X49553Y-43744D03*
X49553Y-44000D03*
X49553Y-44256D03*
X49553Y-44512D03*
G54D18*
X49465Y-45181D03*
X49465Y-42819D03*
G54D19*
X48500Y-44472D03*
X48500Y-43528D03*
G54D20*
X48500Y-45299D03*
X48500Y-42701D03*
G54D21*
X50800Y-46500D03*
G54D22*
X50800Y-49100D03*
X51700Y-49100D03*
X49900Y-49100D03*
G54D23*
X50900Y-57800D03*
X51900Y-57800D03*
X52900Y-57800D03*
X53900Y-57800D03*
X54900Y-57800D03*
X55900Y-57800D03*
X56900Y-57800D03*
X57900Y-57800D03*
X58900Y-57800D03*
X59900Y-57800D03*
X60900Y-57800D03*
X61900Y-57800D03*
X62900Y-57800D03*
X63900Y-57800D03*
X64900Y-57800D03*
X65900Y-57800D03*
G54D24*
X52246Y-40365D03*
X52837Y-40365D03*
X53428Y-40365D03*
X54018Y-40365D03*
X54609Y-40365D03*
X55199Y-40365D03*
X55790Y-40365D03*
X56380Y-40365D03*
X56971Y-40365D03*
X57561Y-40365D03*
X58152Y-40365D03*
X58743Y-40365D03*
X59333Y-40365D03*
X59924Y-40365D03*
X60514Y-40365D03*
X61105Y-40365D03*
X61695Y-40365D03*
X62286Y-40365D03*
X62876Y-40365D03*
X63467Y-40365D03*
X64057Y-40365D03*
X64648Y-40365D03*
X65239Y-40365D03*
X65829Y-40365D03*
X66420Y-40365D03*
X67010Y-40365D03*
X67601Y-40365D03*
X68191Y-40365D03*
X68782Y-40365D03*
X69372Y-40365D03*
X69963Y-40365D03*
X70554Y-40365D03*
G54D25*
X49589Y-36231D03*
X73211Y-36231D03*
G54D26*
X64053Y-48628D03*
X64053Y-47172D03*
X63147Y-47172D03*
X63147Y-48628D03*
G54D27*
X57480Y-54186D03*
X54920Y-54186D03*
X57480Y-52414D03*
X54920Y-52414D03*
X53280Y-54186D03*
X50720Y-54186D03*
X53280Y-52414D03*
X50720Y-52414D03*
G54D28*
X63800Y-49500D03*
X64400Y-49500D03*
X64400Y-46300D03*
X63800Y-46300D03*
G54D29*
X52800Y-48000D03*
X52800Y-47400D03*
X55900Y-49700D03*
X55900Y-50300D03*
X48800Y-48000D03*
X48800Y-47400D03*
X66400Y-48600D03*
X66400Y-48000D03*
X66500Y-52100D03*
X66500Y-51500D03*
G54D28*
X59300Y-51800D03*
X58700Y-51800D03*
X53200Y-43300D03*
X52600Y-43300D03*
X65800Y-49600D03*
X66400Y-49600D03*
X65900Y-46700D03*
X66500Y-46700D03*
X49400Y-55900D03*
X50000Y-55900D03*
G54D29*
X60900Y-54100D03*
X60900Y-54700D03*
G54D28*
X72800Y-40400D03*
X73400Y-40400D03*
G54D30*
X62700Y-52600D03*
G54D31*
X63700Y-52600D03*
X62700Y-53600D03*
X63700Y-53600D03*
X62700Y-54600D03*
X63700Y-54600D03*
G54D32*
X58705Y-51100D03*
X59295Y-51100D03*
X52605Y-42500D03*
X53195Y-42500D03*
G54D33*
X49700Y-48100D03*
X51700Y-43300D03*
X58200Y-53500D03*
X50500Y-50600D03*
X49800Y-49900D03*
G54D34*
X64400Y-45700D03*
X62600Y-46700D03*
X57100Y-48100D03*
X54600Y-43900D03*
X59300Y-50600D03*
X63000Y-50800D03*
X66600Y-45800D03*
X63700Y-50100D03*
X54500Y-55600D03*
X54300Y-48500D03*
X53800Y-48500D03*
X56300Y-56500D03*
X54100Y-56000D03*
X56600Y-54500D03*
X53900Y-54300D03*
X53500Y-48100D03*
X59600Y-48200D03*
X58900Y-54700D03*
X54800Y-56900D03*
X57700Y-46500D03*
X57400Y-50400D03*
X58000Y-51200D03*
X64500Y-51600D03*
X61500Y-51900D03*
X64100Y-50900D03*
X65200Y-50100D03*
X66000Y-47400D03*
X56900Y-49200D03*
X54000Y-43700D03*
X55500Y-55200D03*
X58900Y-46500D03*
X56700Y-54000D03*
X62600Y-51500D03*
X58400Y-46500D03*
X54400Y-44700D03*
X57200Y-48800D03*
G54D33*
X51800Y-48000D03*
X65900Y-45200D03*
X65800Y-51700D03*
X52000Y-49900D03*
X52000Y-55100D03*
X65600Y-48600D03*
X61200Y-48300D03*
X53000Y-44100D03*
X52200Y-41500D03*
X57400Y-46100D03*
X56600Y-46000D03*
X55200Y-49000D03*
X55300Y-50800D03*
X64600Y-47900D03*
X61200Y-47200D03*
G54D34*
X50500Y-56000D03*
G54D35*
X51600Y-52700D02*
X51600Y-51700D01*
X49900Y-48300D02*
X49900Y-49100D01*
X50062Y-43488D02*
X49553Y-43488D01*
X51700Y-43300D02*
X52500Y-42500D01*
X51700Y-43300D02*
X50250Y-43300D01*
X52500Y-42500D02*
X52605Y-42500D01*
X49700Y-48100D02*
X49900Y-48300D01*
X50250Y-43300D02*
X50062Y-43488D01*
X49900Y-49100D02*
X48800Y-48000D01*
X51600Y-51700D02*
X50500Y-50600D01*
X52400Y-53300D02*
X52200Y-53300D01*
X49900Y-49100D02*
X49900Y-49800D01*
X49800Y-49900D02*
X49900Y-49800D01*
X58000Y-53300D02*
X52400Y-53300D01*
X52200Y-53300D02*
X51600Y-52700D01*
X58200Y-53500D02*
X58000Y-53300D01*
G54D36*
X55849Y-45068D02*
X55268Y-45068D01*
X54900Y-44700D02*
X54900Y-44100D01*
X55199Y-43801D02*
X55199Y-40365D01*
X54900Y-44100D02*
X55199Y-43801D01*
X55268Y-45068D02*
X54900Y-44700D01*
X55500Y-41900D02*
X55790Y-41610D01*
X55200Y-44300D02*
X55500Y-44000D01*
X55849Y-44753D02*
X55353Y-44753D01*
X55790Y-41610D02*
X55790Y-40365D01*
X55200Y-44600D02*
X55200Y-44300D01*
X55500Y-44000D02*
X55500Y-41900D01*
X55353Y-44753D02*
X55200Y-44600D01*
X61000Y-41500D02*
X61105Y-41395D01*
X61105Y-41395D02*
X61105Y-40365D01*
X59057Y-43749D02*
X59057Y-42843D01*
X59057Y-42843D02*
X60400Y-41500D01*
X60400Y-41500D02*
X61000Y-41500D01*
X59372Y-42928D02*
X60500Y-41800D01*
X60500Y-41800D02*
X61100Y-41800D01*
X59372Y-43749D02*
X59372Y-42928D01*
X61100Y-41800D02*
X61695Y-41205D01*
X61695Y-41205D02*
X61695Y-40365D01*
X62286Y-41114D02*
X62286Y-40365D01*
X59687Y-43749D02*
X59687Y-43013D01*
X61300Y-42100D02*
X62286Y-41114D01*
X60600Y-42100D02*
X61300Y-42100D01*
X59687Y-43013D02*
X60600Y-42100D01*
X62876Y-41024D02*
X62876Y-40365D01*
X60002Y-43098D02*
X60700Y-42400D01*
X60700Y-42400D02*
X61500Y-42400D01*
X60002Y-43749D02*
X60002Y-43098D01*
X61500Y-42400D02*
X62876Y-41024D01*
X61800Y-42700D02*
X63467Y-41033D01*
X60800Y-42700D02*
X61800Y-42700D01*
X60317Y-43749D02*
X60317Y-43183D01*
X63467Y-40733D02*
X63467Y-40365D01*
X63467Y-41033D02*
X63467Y-40365D01*
X60317Y-43183D02*
X60800Y-42700D01*
X60632Y-43749D02*
X60632Y-43268D01*
X64057Y-40943D02*
X64057Y-40365D01*
X60632Y-43268D02*
X60900Y-43000D01*
X62000Y-43000D02*
X64057Y-40943D01*
X60900Y-43000D02*
X62000Y-43000D01*
X61951Y-44438D02*
X61962Y-44438D01*
X64648Y-41752D02*
X64648Y-40365D01*
X61962Y-44438D02*
X64648Y-41752D01*
X62247Y-44753D02*
X65239Y-41761D01*
X65239Y-41761D02*
X65239Y-40365D01*
X61951Y-44753D02*
X62247Y-44753D01*
X65829Y-41671D02*
X65829Y-40365D01*
X62432Y-45068D02*
X65829Y-41671D01*
X61951Y-45068D02*
X62432Y-45068D01*
X66420Y-41580D02*
X66420Y-40365D01*
X61951Y-45383D02*
X62617Y-45383D01*
X62617Y-45383D02*
X66420Y-41580D01*
X56380Y-41620D02*
X56380Y-40365D01*
X55849Y-44438D02*
X55849Y-42151D01*
X56489Y-40474D02*
X56380Y-40365D01*
X55849Y-42151D02*
X56380Y-41620D01*
X61951Y-45698D02*
X62798Y-45698D01*
X66996Y-41500D02*
X66996Y-40379D01*
X66996Y-40379D02*
X67010Y-40365D01*
X62798Y-45698D02*
X66996Y-41500D01*
X62887Y-46013D02*
X67601Y-41299D01*
X61951Y-46013D02*
X62887Y-46013D01*
X67601Y-41299D02*
X67601Y-40365D01*
X68191Y-41309D02*
X64300Y-45200D01*
X61951Y-46328D02*
X63172Y-46328D01*
X68191Y-41309D02*
X68191Y-40365D01*
X63172Y-46328D02*
X64300Y-45200D01*
X62543Y-46643D02*
X62600Y-46700D01*
X61951Y-46643D02*
X62543Y-46643D01*
X68782Y-41318D02*
X65000Y-45100D01*
X64400Y-45700D02*
X65000Y-45100D01*
X68782Y-41318D02*
X68782Y-40365D01*
X56971Y-41529D02*
X56971Y-40365D01*
X56538Y-41962D02*
X56971Y-41529D01*
X56538Y-43749D02*
X56538Y-41962D01*
X57561Y-41439D02*
X57561Y-40365D01*
X56853Y-42147D02*
X57561Y-41439D01*
X56853Y-43749D02*
X56853Y-42147D01*
X57521Y-40405D02*
X57561Y-40365D01*
X58152Y-41348D02*
X58152Y-40365D01*
X57168Y-42332D02*
X58152Y-41348D01*
X57168Y-43749D02*
X57168Y-42332D01*
X57483Y-43749D02*
X57483Y-42517D01*
X58743Y-41257D02*
X58743Y-40365D01*
X57483Y-42517D02*
X58743Y-41257D01*
X59333Y-41167D02*
X59333Y-40365D01*
X57798Y-42702D02*
X59333Y-41167D01*
X57798Y-43749D02*
X57798Y-42702D01*
X59924Y-41076D02*
X59924Y-40365D01*
X58428Y-42572D02*
X59924Y-41076D01*
X58428Y-43749D02*
X58428Y-42572D01*
X58743Y-42757D02*
X60300Y-41200D01*
X58743Y-43749D02*
X58743Y-42757D01*
X60500Y-40379D02*
X60514Y-40365D01*
X60300Y-41200D02*
X60500Y-41000D01*
X60500Y-41000D02*
X60500Y-40379D01*
X53786Y-52414D02*
X54500Y-51700D01*
X57798Y-50498D02*
X56896Y-51400D01*
X57798Y-49851D02*
X57798Y-50498D01*
X56896Y-51400D02*
X54800Y-51400D01*
X54800Y-51400D02*
X54500Y-51700D01*
X53786Y-52414D02*
X53280Y-52414D01*
X58113Y-49851D02*
X58113Y-50587D01*
X57480Y-51220D02*
X57480Y-52414D01*
X58113Y-50587D02*
X57480Y-51220D01*
X54600Y-43900D02*
X54609Y-43891D01*
X57600Y-48600D02*
X57100Y-48100D01*
X54609Y-43891D02*
X54609Y-40365D01*
X61262Y-49851D02*
X61262Y-49062D01*
X61262Y-49062D02*
X60800Y-48600D01*
X60800Y-48600D02*
X57600Y-48600D01*
X66600Y-45800D02*
X66743Y-45657D01*
X59372Y-49851D02*
X59372Y-50528D01*
X66743Y-45657D02*
X67617Y-45657D01*
X59372Y-50528D02*
X59300Y-50600D01*
X63700Y-50100D02*
X63000Y-50800D01*
X49553Y-44000D02*
X49553Y-43744D01*
X58700Y-55600D02*
X60900Y-57800D01*
X54583Y-48217D02*
X54300Y-48500D01*
X56500Y-55600D02*
X57200Y-55600D01*
X54500Y-55600D02*
X56500Y-55600D01*
X57200Y-55600D02*
X58700Y-55600D01*
X55849Y-48217D02*
X54583Y-48217D01*
X54100Y-56000D02*
X54600Y-56500D01*
X54600Y-56500D02*
X56300Y-56500D01*
X54398Y-47902D02*
X53800Y-48500D01*
X54398Y-47902D02*
X55849Y-47902D01*
X53900Y-54300D02*
X54100Y-54300D01*
X54500Y-54700D02*
X56400Y-54700D01*
X54013Y-47587D02*
X55849Y-47587D01*
X54100Y-54300D02*
X54500Y-54700D01*
X54013Y-47587D02*
X53500Y-48100D01*
X56400Y-54700D02*
X56600Y-54500D01*
X62900Y-56800D02*
X63900Y-57800D01*
X61000Y-56800D02*
X61400Y-56800D01*
X55849Y-47272D02*
X56772Y-47272D01*
X61400Y-56800D02*
X62900Y-56800D01*
X58900Y-54700D02*
X61000Y-56800D01*
X56772Y-47272D02*
X57700Y-48200D01*
X57700Y-48200D02*
X59600Y-48200D01*
X54800Y-56900D02*
X54900Y-57000D01*
X54900Y-57000D02*
X55100Y-57000D01*
X55100Y-57000D02*
X55900Y-57800D01*
X58113Y-43749D02*
X58113Y-46087D01*
X58113Y-46087D02*
X57700Y-46500D01*
X58000Y-51200D02*
X58605Y-51200D01*
X57483Y-49851D02*
X57483Y-50317D01*
X58605Y-51200D02*
X58705Y-51100D01*
X57483Y-50317D02*
X57400Y-50400D01*
X66100Y-51300D02*
X64800Y-51300D01*
X66300Y-51500D02*
X66100Y-51300D01*
X67582Y-51500D02*
X67617Y-51535D01*
X60317Y-50217D02*
X62700Y-52600D01*
X60317Y-49851D02*
X60317Y-50217D01*
X64800Y-51300D02*
X64500Y-51600D01*
X66500Y-51500D02*
X67582Y-51500D01*
X66500Y-51500D02*
X66300Y-51500D01*
X60002Y-50402D02*
X61500Y-51900D01*
X60002Y-49851D02*
X60002Y-50402D01*
X64500Y-50500D02*
X64100Y-50900D01*
X64800Y-50500D02*
X64500Y-50500D01*
X65200Y-50100D02*
X64800Y-50500D01*
X66500Y-46900D02*
X66000Y-47400D01*
X66500Y-46700D02*
X66500Y-46900D01*
X66558Y-46642D02*
X66500Y-46700D01*
X67617Y-46642D02*
X66558Y-46642D01*
X60632Y-49851D02*
X60632Y-49332D01*
X60632Y-49332D02*
X60500Y-49200D01*
X60500Y-49200D02*
X56900Y-49200D01*
X54000Y-43700D02*
X54018Y-43682D01*
X54018Y-43682D02*
X54018Y-40365D01*
X57000Y-54300D02*
X56700Y-54000D01*
X56500Y-55100D02*
X57000Y-54600D01*
X60200Y-45500D02*
X59800Y-45500D01*
X58900Y-46400D02*
X58900Y-46500D01*
X61262Y-43749D02*
X61262Y-44438D01*
X55600Y-55100D02*
X56500Y-55100D01*
X59800Y-45500D02*
X58900Y-46400D01*
X57000Y-54600D02*
X57000Y-54300D01*
X61262Y-44438D02*
X60200Y-45500D01*
X55500Y-55200D02*
X55600Y-55100D01*
X62700Y-54600D02*
X61000Y-54600D01*
X62317Y-48217D02*
X62600Y-48500D01*
X62600Y-48500D02*
X62600Y-51400D01*
X61000Y-54600D02*
X60900Y-54700D01*
X62600Y-51400D02*
X62600Y-51500D01*
X61951Y-48217D02*
X62317Y-48217D01*
X58400Y-46500D02*
X58400Y-46400D01*
X59600Y-45200D02*
X58400Y-46400D01*
X60947Y-43749D02*
X60947Y-44353D01*
X60100Y-45200D02*
X59600Y-45200D01*
X60947Y-44353D02*
X60100Y-45200D01*
X66400Y-49800D02*
X65500Y-50700D01*
X59687Y-49851D02*
X59687Y-50587D01*
X63200Y-53100D02*
X62700Y-53600D01*
X67617Y-49614D02*
X66414Y-49614D01*
X65500Y-50700D02*
X65300Y-50900D01*
X66400Y-49600D02*
X66400Y-49800D01*
X65300Y-50900D02*
X64600Y-50900D01*
X66414Y-49614D02*
X66400Y-49600D01*
X59687Y-50587D02*
X62700Y-53600D01*
X64600Y-50900D02*
X63200Y-52300D01*
X63200Y-52300D02*
X63200Y-53100D01*
X54400Y-44700D02*
X53600Y-43900D01*
X60700Y-48900D02*
X57300Y-48900D01*
X53428Y-41628D02*
X53428Y-40365D01*
X53600Y-43900D02*
X53600Y-41800D01*
X53600Y-41800D02*
X53428Y-41628D01*
X57300Y-48900D02*
X57200Y-48800D01*
X60947Y-49147D02*
X60700Y-48900D01*
X60947Y-49851D02*
X60947Y-49147D01*
G54D35*
X63700Y-52600D02*
X63700Y-52700D01*
X60300Y-54400D02*
X60600Y-54100D01*
X65900Y-45200D02*
X69800Y-41300D01*
X56583Y-45383D02*
X55849Y-45383D01*
X64200Y-52100D02*
X63700Y-52600D01*
X64900Y-52100D02*
X64200Y-52100D01*
X60600Y-54100D02*
X60900Y-54100D01*
X66500Y-52100D02*
X64900Y-52100D01*
X66400Y-48600D02*
X67587Y-48600D01*
X51700Y-49100D02*
X52800Y-48000D01*
X64200Y-53200D02*
X64200Y-55200D01*
X65900Y-46700D02*
X65900Y-45200D01*
X54500Y-48900D02*
X54868Y-48532D01*
X55811Y-49200D02*
X55849Y-49162D01*
X54800Y-49200D02*
X55300Y-49700D01*
X61951Y-47902D02*
X60802Y-47902D01*
X61598Y-47902D02*
X61200Y-48300D01*
X55900Y-49700D02*
X55900Y-49213D01*
X51700Y-49100D02*
X51700Y-48100D01*
X51700Y-48100D02*
X51800Y-48000D01*
X57500Y-47400D02*
X57000Y-46900D01*
X60300Y-47400D02*
X57500Y-47400D01*
X57000Y-46900D02*
X57000Y-45800D01*
X60802Y-47902D02*
X60300Y-47400D01*
X62300Y-55200D02*
X60400Y-55200D01*
X60300Y-55100D02*
X60300Y-54400D01*
X54500Y-48900D02*
X54800Y-49200D01*
X67587Y-48600D02*
X67617Y-48630D01*
X60400Y-55200D02*
X60300Y-55100D01*
X63700Y-52700D02*
X64200Y-53200D01*
X65600Y-48600D02*
X66400Y-48600D01*
X52800Y-48000D02*
X52800Y-48100D01*
X66200Y-52100D02*
X66500Y-52100D01*
X57000Y-45800D02*
X56583Y-45383D01*
X61951Y-47902D02*
X61598Y-47902D01*
X52000Y-55700D02*
X52000Y-55100D01*
X52000Y-55700D02*
X52000Y-57700D01*
X51700Y-49100D02*
X51700Y-49600D01*
X52246Y-40365D02*
X52246Y-41454D01*
X52000Y-49900D02*
X51700Y-49600D01*
X65800Y-51700D02*
X66200Y-52100D01*
X52000Y-57700D02*
X51900Y-57800D01*
X64200Y-55200D02*
X62300Y-55200D01*
X55900Y-49213D02*
X55849Y-49162D01*
X55300Y-49700D02*
X55900Y-49700D01*
X66400Y-48600D02*
X66300Y-48600D01*
X53600Y-48900D02*
X54500Y-48900D01*
X66300Y-48600D02*
X65800Y-49100D01*
X52800Y-48100D02*
X53600Y-48900D01*
X65800Y-49100D02*
X65800Y-49600D01*
X54868Y-48532D02*
X55849Y-48532D01*
X72500Y-41300D02*
X73400Y-40400D01*
X54283Y-45383D02*
X55849Y-45383D01*
X69800Y-41300D02*
X72500Y-41300D01*
X52200Y-41500D02*
X52246Y-41454D01*
X53000Y-44100D02*
X54283Y-45383D01*
X49400Y-55900D02*
X49400Y-56300D01*
X56298Y-45698D02*
X55849Y-45698D01*
X54100Y-53600D02*
X56800Y-53600D01*
X55849Y-48847D02*
X55353Y-48847D01*
X67779Y-50579D02*
X68500Y-51300D01*
X65100Y-55300D02*
X64700Y-55700D01*
X56600Y-46000D02*
X56298Y-45698D01*
X60400Y-55700D02*
X58600Y-53900D01*
X67617Y-50579D02*
X67779Y-50579D01*
X73900Y-39700D02*
X73211Y-39700D01*
X68800Y-49800D02*
X68800Y-48800D01*
X60500Y-47000D02*
X57600Y-47000D01*
X49465Y-44600D02*
X49553Y-44512D01*
X52600Y-43300D02*
X52050Y-43850D01*
X50784Y-46500D02*
X49465Y-45181D01*
X61400Y-47400D02*
X61200Y-47200D01*
X61500Y-53700D02*
X58700Y-53700D01*
X57300Y-46700D02*
X57300Y-46200D01*
X57300Y-46200D02*
X57400Y-46100D01*
X68021Y-50579D02*
X68800Y-49800D01*
X63200Y-54100D02*
X61900Y-54100D01*
X48756Y-43528D02*
X49465Y-42819D01*
X53280Y-54186D02*
X53514Y-54186D01*
X68500Y-51300D02*
X68500Y-53900D01*
X55900Y-50600D02*
X55900Y-50300D01*
X53514Y-54186D02*
X54100Y-53600D01*
X51312Y-44512D02*
X51400Y-44512D01*
X58700Y-53700D02*
X58214Y-54186D01*
X51700Y-47400D02*
X50800Y-46500D01*
X48500Y-43528D02*
X48756Y-43528D01*
X58700Y-51800D02*
X58700Y-53700D01*
X65900Y-55300D02*
X65100Y-55300D01*
X67100Y-55300D02*
X65900Y-55300D01*
X64400Y-46825D02*
X64053Y-47172D01*
X53280Y-54186D02*
X53280Y-54220D01*
X65401Y-48000D02*
X64700Y-48000D01*
X49465Y-42819D02*
X49465Y-36355D01*
X48800Y-47400D02*
X49900Y-47400D01*
X52800Y-47400D02*
X51700Y-47400D01*
X57600Y-47000D02*
X57300Y-46700D01*
X61900Y-54100D02*
X61500Y-53700D01*
X61087Y-47587D02*
X60500Y-47000D01*
X63700Y-54600D02*
X63200Y-54100D01*
X64400Y-46300D02*
X64400Y-46825D01*
X68500Y-53900D02*
X67100Y-55300D01*
X67617Y-47980D02*
X66420Y-47980D01*
X63147Y-49147D02*
X63147Y-48628D01*
X55700Y-50800D02*
X55900Y-50600D01*
X64700Y-55700D02*
X60400Y-55700D01*
X63800Y-49500D02*
X63500Y-49500D01*
X49400Y-52500D02*
X49400Y-51500D01*
X55300Y-50800D02*
X55700Y-50800D01*
X49400Y-53300D02*
X49400Y-52500D01*
X56894Y-53600D02*
X57480Y-54186D01*
X67617Y-47311D02*
X68189Y-47311D01*
X61400Y-47587D02*
X61087Y-47587D01*
X49209Y-45181D02*
X48500Y-44472D01*
X53280Y-54186D02*
X51886Y-54186D01*
X70300Y-41900D02*
X73100Y-41900D01*
X52050Y-43850D02*
X51400Y-44500D01*
X50800Y-49500D02*
X50800Y-49100D01*
X51000Y-53300D02*
X49400Y-53300D01*
X68189Y-47311D02*
X69000Y-46500D01*
X50800Y-46500D02*
X50800Y-49100D01*
X65500Y-48000D02*
X65401Y-48000D01*
X61951Y-47587D02*
X61400Y-47587D01*
X69000Y-43200D02*
X70300Y-41900D01*
X55849Y-45698D02*
X53898Y-45698D01*
X73211Y-39700D02*
X71219Y-39700D01*
X61400Y-47587D02*
X61400Y-47400D01*
X74100Y-39900D02*
X73900Y-39700D01*
X51400Y-44512D02*
X51400Y-44500D01*
X64600Y-47900D02*
X64600Y-47100D01*
X49400Y-51500D02*
X49400Y-50900D01*
X73100Y-41900D02*
X74100Y-40900D01*
X64700Y-48000D02*
X64600Y-47900D01*
X66400Y-48000D02*
X65500Y-48000D01*
X64400Y-46900D02*
X64400Y-46825D01*
X49400Y-56300D02*
X50900Y-57800D01*
X55353Y-48847D02*
X55200Y-49000D01*
X56800Y-53600D02*
X56894Y-53600D01*
X51886Y-54186D02*
X51000Y-53300D01*
X55900Y-50300D02*
X51200Y-50300D01*
X49400Y-50900D02*
X50800Y-49500D01*
X49400Y-55900D02*
X49400Y-53300D01*
X49465Y-45181D02*
X49465Y-44600D01*
X71219Y-39700D02*
X70554Y-40365D01*
X68800Y-48800D02*
X67980Y-47980D01*
X49589Y-36231D02*
X73211Y-36231D01*
X66420Y-47980D02*
X66400Y-48000D01*
X49553Y-44512D02*
X51312Y-44512D01*
X49465Y-45181D02*
X49209Y-45181D01*
X64600Y-47100D02*
X64400Y-46900D01*
X65900Y-57800D02*
X65900Y-55300D01*
X50800Y-49900D02*
X50800Y-49100D01*
X73211Y-36231D02*
X73211Y-39700D01*
X50800Y-46500D02*
X50784Y-46500D01*
X48500Y-44472D02*
X48500Y-43528D01*
X67617Y-50579D02*
X68021Y-50579D01*
X53898Y-45698D02*
X52050Y-43850D01*
X51200Y-50300D02*
X50800Y-49900D01*
X67980Y-47980D02*
X67617Y-47980D01*
X74100Y-40900D02*
X74100Y-39900D01*
X67617Y-47980D02*
X67617Y-47311D01*
X49465Y-36355D02*
X49589Y-36231D01*
X63500Y-49500D02*
X63147Y-49147D01*
X58214Y-54186D02*
X57480Y-54186D01*
X49900Y-47400D02*
X50800Y-46500D01*
X69000Y-46500D02*
X69000Y-43200D01*
G54D36*
X50000Y-55900D02*
X50400Y-55900D01*
X50400Y-55900D02*
X50500Y-56000D01*
X69500Y-41000D02*
X69300Y-40800D01*
X72800Y-40400D02*
X71700Y-40400D01*
X69300Y-40437D02*
X69372Y-40365D01*
X69300Y-40800D02*
X69300Y-40437D01*
X71100Y-41000D02*
X69500Y-41000D01*
X71700Y-40400D02*
X71100Y-41000D01*
X63800Y-46519D02*
X63147Y-47172D01*
X63800Y-46300D02*
X63800Y-46519D01*
X62628Y-47172D02*
X62413Y-46957D01*
X63147Y-47172D02*
X62628Y-47172D01*
X62413Y-46957D02*
X61951Y-46957D01*
X62372Y-47272D02*
X62900Y-47800D01*
X63225Y-47800D02*
X64053Y-48628D01*
X64400Y-48975D02*
X64053Y-48628D01*
X61951Y-47272D02*
X62372Y-47272D01*
X62900Y-47800D02*
X63225Y-47800D01*
X64400Y-49500D02*
X64400Y-48975D01*
X53200Y-43300D02*
X53200Y-42505D01*
X53200Y-42505D02*
X53195Y-42500D01*
X59300Y-51800D02*
X59300Y-51105D01*
X59300Y-51105D02*
X59295Y-51100D01*
G54D10*
G36*
X48550Y-44522D02*
X48450Y-44522D01*
X48450Y-44422D01*
X48450Y-44372D01*
X48450Y-44031D01*
X48450Y-43969D01*
X48450Y-43628D01*
X48450Y-43578D01*
X48450Y-43478D01*
X48550Y-43478D01*
X48550Y-43578D01*
X48550Y-43628D01*
X48550Y-43969D01*
X48550Y-44031D01*
X48550Y-44372D01*
X48550Y-44422D01*
X48550Y-44522D01*
X48550Y-44522D01*
G37*
G54D37*
X48550Y-44522D02*
X48450Y-44522D01*
X48450Y-44422D01*
X48450Y-44372D01*
X48450Y-44031D01*
X48450Y-43969D01*
X48450Y-43628D01*
X48450Y-43578D01*
X48450Y-43478D01*
X48550Y-43478D01*
X48550Y-43578D01*
X48550Y-43628D01*
X48550Y-43969D01*
X48550Y-44031D01*
X48550Y-44372D01*
X48550Y-44422D01*
X48550Y-44522D01*
G54D10*
G36*
X55313Y-49004D02*
X55305Y-49024D01*
X55305Y-49123D01*
X55305Y-49257D01*
X55024Y-48976D01*
X54948Y-48900D01*
X54999Y-48849D01*
X55304Y-48849D01*
X55304Y-48947D01*
X55310Y-48947D01*
X55304Y-48953D01*
X55305Y-48984D01*
X55313Y-49004D01*
X55313Y-49004D01*
G37*
G54D37*
X55313Y-49004D02*
X55305Y-49024D01*
X55305Y-49123D01*
X55305Y-49257D01*
X55024Y-48976D01*
X54948Y-48900D01*
X54999Y-48849D01*
X55304Y-48849D01*
X55304Y-48947D01*
X55310Y-48947D01*
X55304Y-48953D01*
X55305Y-48984D01*
X55313Y-49004D01*
G54D10*
G36*
X56699Y-46982D02*
X56393Y-46982D01*
X56393Y-46820D01*
X56384Y-46800D01*
X56393Y-46781D01*
X56393Y-46682D01*
X56393Y-46506D01*
X56384Y-46485D01*
X56393Y-46466D01*
X56393Y-46367D01*
X56393Y-46191D01*
X56384Y-46170D01*
X56393Y-46151D01*
X56393Y-46052D01*
X56393Y-45876D01*
X56384Y-45855D01*
X56393Y-45835D01*
X56394Y-45804D01*
X56388Y-45798D01*
X56394Y-45798D01*
X56394Y-45700D01*
X56451Y-45700D01*
X56683Y-45931D01*
X56683Y-46900D01*
X56699Y-46982D01*
X56699Y-46982D01*
G37*
G54D37*
X56699Y-46982D02*
X56393Y-46982D01*
X56393Y-46820D01*
X56384Y-46800D01*
X56393Y-46781D01*
X56393Y-46682D01*
X56393Y-46506D01*
X56384Y-46485D01*
X56393Y-46466D01*
X56393Y-46367D01*
X56393Y-46191D01*
X56384Y-46170D01*
X56393Y-46151D01*
X56393Y-46052D01*
X56393Y-45876D01*
X56384Y-45855D01*
X56393Y-45835D01*
X56394Y-45804D01*
X56388Y-45798D01*
X56394Y-45798D01*
X56394Y-45700D01*
X56451Y-45700D01*
X56683Y-45931D01*
X56683Y-46900D01*
X56699Y-46982D01*
G54D10*
G36*
X57823Y-45967D02*
X57715Y-46075D01*
X57616Y-46075D01*
X57460Y-46139D01*
X57340Y-46259D01*
X57317Y-46314D01*
X57317Y-45800D01*
X57316Y-45799D01*
X57293Y-45679D01*
X57292Y-45678D01*
X57269Y-45644D01*
X57224Y-45576D01*
X57224Y-45575D01*
X56807Y-45159D01*
X56705Y-45090D01*
X56583Y-45066D01*
X56393Y-45066D01*
X56393Y-44931D01*
X56384Y-44910D01*
X56393Y-44891D01*
X56393Y-44792D01*
X56393Y-44616D01*
X56384Y-44595D01*
X56393Y-44576D01*
X56393Y-44477D01*
X56393Y-44301D01*
X56387Y-44287D01*
X56400Y-44293D01*
X56499Y-44293D01*
X56675Y-44293D01*
X56695Y-44284D01*
X56715Y-44293D01*
X56814Y-44293D01*
X56990Y-44293D01*
X57010Y-44284D01*
X57030Y-44293D01*
X57129Y-44293D01*
X57305Y-44293D01*
X57325Y-44284D01*
X57345Y-44293D01*
X57444Y-44293D01*
X57620Y-44293D01*
X57640Y-44284D01*
X57660Y-44293D01*
X57759Y-44293D01*
X57823Y-44293D01*
X57823Y-45967D01*
X57823Y-45967D01*
G37*
G54D37*
X57823Y-45967D02*
X57715Y-46075D01*
X57616Y-46075D01*
X57460Y-46139D01*
X57340Y-46259D01*
X57317Y-46314D01*
X57317Y-45800D01*
X57316Y-45799D01*
X57293Y-45679D01*
X57292Y-45678D01*
X57269Y-45644D01*
X57224Y-45576D01*
X57224Y-45575D01*
X56807Y-45159D01*
X56705Y-45090D01*
X56583Y-45066D01*
X56393Y-45066D01*
X56393Y-44931D01*
X56384Y-44910D01*
X56393Y-44891D01*
X56393Y-44792D01*
X56393Y-44616D01*
X56384Y-44595D01*
X56393Y-44576D01*
X56393Y-44477D01*
X56393Y-44301D01*
X56387Y-44287D01*
X56400Y-44293D01*
X56499Y-44293D01*
X56675Y-44293D01*
X56695Y-44284D01*
X56715Y-44293D01*
X56814Y-44293D01*
X56990Y-44293D01*
X57010Y-44284D01*
X57030Y-44293D01*
X57129Y-44293D01*
X57305Y-44293D01*
X57325Y-44284D01*
X57345Y-44293D01*
X57444Y-44293D01*
X57620Y-44293D01*
X57640Y-44284D01*
X57660Y-44293D01*
X57759Y-44293D01*
X57823Y-44293D01*
X57823Y-45967D01*
G54D10*
G36*
X61415Y-47429D02*
X61407Y-47450D01*
X61406Y-47481D01*
X61412Y-47487D01*
X61406Y-47487D01*
X61406Y-47585D01*
X60933Y-47585D01*
X60524Y-47176D01*
X60422Y-47107D01*
X60300Y-47083D01*
X57631Y-47083D01*
X57317Y-46769D01*
X57317Y-46686D01*
X57339Y-46740D01*
X57459Y-46860D01*
X57615Y-46925D01*
X57784Y-46925D01*
X57940Y-46861D01*
X58050Y-46751D01*
X58159Y-46860D01*
X58315Y-46925D01*
X58484Y-46925D01*
X58640Y-46861D01*
X58650Y-46851D01*
X58659Y-46860D01*
X58815Y-46925D01*
X58984Y-46925D01*
X59140Y-46861D01*
X59260Y-46741D01*
X59325Y-46585D01*
X59325Y-46416D01*
X59316Y-46394D01*
X59920Y-45790D01*
X60200Y-45790D01*
X60311Y-45768D01*
X60405Y-45705D01*
X61407Y-44703D01*
X61407Y-44714D01*
X61407Y-44890D01*
X61415Y-44910D01*
X61407Y-44930D01*
X61407Y-45029D01*
X61407Y-45205D01*
X61415Y-45225D01*
X61407Y-45245D01*
X61407Y-45344D01*
X61407Y-45520D01*
X61415Y-45540D01*
X61407Y-45560D01*
X61407Y-45659D01*
X61407Y-45835D01*
X61415Y-45855D01*
X61407Y-45875D01*
X61407Y-45974D01*
X61407Y-46150D01*
X61415Y-46170D01*
X61407Y-46190D01*
X61407Y-46289D01*
X61407Y-46465D01*
X61415Y-46485D01*
X61407Y-46505D01*
X61407Y-46604D01*
X61407Y-46780D01*
X61415Y-46799D01*
X61407Y-46819D01*
X61407Y-46918D01*
X61407Y-47094D01*
X61415Y-47114D01*
X61407Y-47134D01*
X61407Y-47233D01*
X61407Y-47409D01*
X61415Y-47429D01*
X61415Y-47429D01*
G37*
G54D37*
X61415Y-47429D02*
X61407Y-47450D01*
X61406Y-47481D01*
X61412Y-47487D01*
X61406Y-47487D01*
X61406Y-47585D01*
X60933Y-47585D01*
X60524Y-47176D01*
X60422Y-47107D01*
X60300Y-47083D01*
X57631Y-47083D01*
X57317Y-46769D01*
X57317Y-46686D01*
X57339Y-46740D01*
X57459Y-46860D01*
X57615Y-46925D01*
X57784Y-46925D01*
X57940Y-46861D01*
X58050Y-46751D01*
X58159Y-46860D01*
X58315Y-46925D01*
X58484Y-46925D01*
X58640Y-46861D01*
X58650Y-46851D01*
X58659Y-46860D01*
X58815Y-46925D01*
X58984Y-46925D01*
X59140Y-46861D01*
X59260Y-46741D01*
X59325Y-46585D01*
X59325Y-46416D01*
X59316Y-46394D01*
X59920Y-45790D01*
X60200Y-45790D01*
X60311Y-45768D01*
X60405Y-45705D01*
X61407Y-44703D01*
X61407Y-44714D01*
X61407Y-44890D01*
X61415Y-44910D01*
X61407Y-44930D01*
X61407Y-45029D01*
X61407Y-45205D01*
X61415Y-45225D01*
X61407Y-45245D01*
X61407Y-45344D01*
X61407Y-45520D01*
X61415Y-45540D01*
X61407Y-45560D01*
X61407Y-45659D01*
X61407Y-45835D01*
X61415Y-45855D01*
X61407Y-45875D01*
X61407Y-45974D01*
X61407Y-46150D01*
X61415Y-46170D01*
X61407Y-46190D01*
X61407Y-46289D01*
X61407Y-46465D01*
X61415Y-46485D01*
X61407Y-46505D01*
X61407Y-46604D01*
X61407Y-46780D01*
X61415Y-46799D01*
X61407Y-46819D01*
X61407Y-46918D01*
X61407Y-47094D01*
X61415Y-47114D01*
X61407Y-47134D01*
X61407Y-47233D01*
X61407Y-47409D01*
X61415Y-47429D01*
G54D10*
G36*
X63771Y-54600D02*
X63700Y-54671D01*
X63629Y-54600D01*
X63594Y-54565D01*
X63322Y-54292D01*
X63228Y-54319D01*
X63204Y-54384D01*
X63165Y-54289D01*
X63011Y-54135D01*
X62926Y-54100D01*
X63011Y-54065D01*
X63165Y-53911D01*
X63200Y-53826D01*
X63235Y-53911D01*
X63389Y-54065D01*
X63480Y-54102D01*
X63419Y-54128D01*
X63392Y-54222D01*
X63665Y-54494D01*
X63700Y-54529D01*
X63771Y-54600D01*
X63771Y-54600D01*
G37*
G54D37*
X63771Y-54600D02*
X63700Y-54671D01*
X63629Y-54600D01*
X63594Y-54565D01*
X63322Y-54292D01*
X63228Y-54319D01*
X63204Y-54384D01*
X63165Y-54289D01*
X63011Y-54135D01*
X62926Y-54100D01*
X63011Y-54065D01*
X63165Y-53911D01*
X63200Y-53826D01*
X63235Y-53911D01*
X63389Y-54065D01*
X63480Y-54102D01*
X63419Y-54128D01*
X63392Y-54222D01*
X63665Y-54494D01*
X63700Y-54529D01*
X63771Y-54600D01*
G54D10*
G36*
X63850Y-49550D02*
X63750Y-49550D01*
X63700Y-49550D01*
X63487Y-49550D01*
X63425Y-49612D01*
X63426Y-49676D01*
X63426Y-49773D01*
X63340Y-49859D01*
X63275Y-50015D01*
X63275Y-50115D01*
X63015Y-50375D01*
X62916Y-50375D01*
X62890Y-50385D01*
X62890Y-49251D01*
X62980Y-49251D01*
X63035Y-49252D01*
X63097Y-49190D01*
X63097Y-48728D01*
X63097Y-48678D01*
X63097Y-48578D01*
X63197Y-48578D01*
X63197Y-48678D01*
X63197Y-48728D01*
X63197Y-49190D01*
X63259Y-49252D01*
X63314Y-49251D01*
X63413Y-49251D01*
X63426Y-49245D01*
X63426Y-49324D01*
X63425Y-49388D01*
X63487Y-49450D01*
X63700Y-49450D01*
X63750Y-49450D01*
X63850Y-49450D01*
X63850Y-49550D01*
X63850Y-49550D01*
G37*
G54D37*
X63850Y-49550D02*
X63750Y-49550D01*
X63700Y-49550D01*
X63487Y-49550D01*
X63425Y-49612D01*
X63426Y-49676D01*
X63426Y-49773D01*
X63340Y-49859D01*
X63275Y-50015D01*
X63275Y-50115D01*
X63015Y-50375D01*
X62916Y-50375D01*
X62890Y-50385D01*
X62890Y-49251D01*
X62980Y-49251D01*
X63035Y-49252D01*
X63097Y-49190D01*
X63097Y-48728D01*
X63097Y-48678D01*
X63097Y-48578D01*
X63197Y-48578D01*
X63197Y-48678D01*
X63197Y-48728D01*
X63197Y-49190D01*
X63259Y-49252D01*
X63314Y-49251D01*
X63413Y-49251D01*
X63426Y-49245D01*
X63426Y-49324D01*
X63425Y-49388D01*
X63487Y-49450D01*
X63700Y-49450D01*
X63750Y-49450D01*
X63850Y-49450D01*
X63850Y-49550D01*
G54D10*
G36*
X77425Y-54365D02*
X77000Y-54790D01*
X77000Y-53781D01*
X76938Y-53719D01*
X76407Y-53719D01*
X76407Y-54093D01*
X76469Y-54155D01*
X76799Y-54154D01*
X76891Y-54116D01*
X76961Y-54046D01*
X76999Y-53955D01*
X76999Y-53856D01*
X77000Y-53781D01*
X77000Y-54790D01*
X76307Y-55483D01*
X76307Y-54093D01*
X76307Y-53719D01*
X76307Y-53619D01*
X76307Y-53245D01*
X76245Y-53183D01*
X75915Y-53184D01*
X75834Y-53217D01*
X75834Y-43070D01*
X75834Y-42696D01*
X75834Y-42596D01*
X75834Y-42222D01*
X75772Y-42160D01*
X75442Y-42161D01*
X75350Y-42199D01*
X75280Y-42269D01*
X75242Y-42360D01*
X75242Y-42459D01*
X75241Y-42534D01*
X75303Y-42596D01*
X75834Y-42596D01*
X75834Y-42696D01*
X75303Y-42696D01*
X75241Y-42758D01*
X75242Y-42833D01*
X75242Y-42932D01*
X75280Y-43023D01*
X75350Y-43093D01*
X75442Y-43131D01*
X75772Y-43132D01*
X75834Y-43070D01*
X75834Y-53217D01*
X75823Y-53222D01*
X75753Y-53292D01*
X75715Y-53383D01*
X75715Y-53482D01*
X75714Y-53557D01*
X75776Y-53619D01*
X76307Y-53619D01*
X76307Y-53719D01*
X75776Y-53719D01*
X75714Y-53781D01*
X75715Y-53856D01*
X75715Y-53955D01*
X75753Y-54046D01*
X75823Y-54116D01*
X75915Y-54154D01*
X76245Y-54155D01*
X76307Y-54093D01*
X76307Y-55483D01*
X74051Y-57739D01*
X74051Y-36343D01*
X73989Y-36281D01*
X73261Y-36281D01*
X73261Y-37206D01*
X73323Y-37268D01*
X73850Y-37267D01*
X73942Y-37229D01*
X74012Y-37159D01*
X74050Y-37068D01*
X74050Y-36969D01*
X74051Y-36343D01*
X74051Y-57739D01*
X73615Y-58175D01*
X68162Y-58175D01*
X68162Y-53643D01*
X68162Y-53419D01*
X68162Y-50691D01*
X68162Y-50467D01*
X68161Y-50431D01*
X68161Y-50332D01*
X68123Y-50241D01*
X68053Y-50171D01*
X67961Y-50133D01*
X67729Y-50132D01*
X67667Y-50194D01*
X67667Y-50529D01*
X68100Y-50529D01*
X68162Y-50467D01*
X68162Y-50691D01*
X68100Y-50629D01*
X67667Y-50629D01*
X67667Y-50964D01*
X67729Y-51026D01*
X67961Y-51025D01*
X68053Y-50987D01*
X68123Y-50917D01*
X68161Y-50826D01*
X68161Y-50727D01*
X68162Y-50691D01*
X68162Y-53419D01*
X68161Y-53383D01*
X68161Y-53284D01*
X68123Y-53193D01*
X68053Y-53123D01*
X67961Y-53085D01*
X67729Y-53084D01*
X67667Y-53146D01*
X67667Y-53481D01*
X68100Y-53481D01*
X68162Y-53419D01*
X68162Y-53643D01*
X68100Y-53581D01*
X67667Y-53581D01*
X67667Y-53916D01*
X67729Y-53978D01*
X67961Y-53977D01*
X68053Y-53939D01*
X68123Y-53869D01*
X68161Y-53778D01*
X68161Y-53679D01*
X68162Y-53643D01*
X68162Y-58175D01*
X67567Y-58175D01*
X67567Y-53916D01*
X67567Y-53581D01*
X67567Y-53481D01*
X67567Y-53146D01*
X67505Y-53084D01*
X67273Y-53085D01*
X67181Y-53123D01*
X67111Y-53193D01*
X67073Y-53284D01*
X67073Y-53383D01*
X67072Y-53419D01*
X67134Y-53481D01*
X67567Y-53481D01*
X67567Y-53581D01*
X67134Y-53581D01*
X67072Y-53643D01*
X67073Y-53679D01*
X67073Y-53778D01*
X67111Y-53869D01*
X67181Y-53939D01*
X67273Y-53977D01*
X67505Y-53978D01*
X67567Y-53916D01*
X67567Y-58175D01*
X66517Y-58175D01*
X66416Y-58175D01*
X66383Y-58141D01*
X66432Y-58125D01*
X66517Y-57896D01*
X66507Y-57653D01*
X66432Y-57475D01*
X66331Y-57440D01*
X66260Y-57511D01*
X66260Y-57369D01*
X66225Y-57268D01*
X65996Y-57183D01*
X65753Y-57193D01*
X65575Y-57268D01*
X65540Y-57369D01*
X65900Y-57729D01*
X66260Y-57369D01*
X66260Y-57511D01*
X66006Y-57765D01*
X65971Y-57800D01*
X65900Y-57871D01*
X65829Y-57800D01*
X65794Y-57765D01*
X65469Y-57440D01*
X65431Y-57452D01*
X65429Y-57447D01*
X65254Y-57271D01*
X65024Y-57176D01*
X64776Y-57176D01*
X64547Y-57271D01*
X64399Y-57417D01*
X64254Y-57271D01*
X64024Y-57176D01*
X63776Y-57176D01*
X63712Y-57202D01*
X63105Y-56595D01*
X63011Y-56532D01*
X62900Y-56510D01*
X61400Y-56510D01*
X61120Y-56510D01*
X59325Y-54715D01*
X59325Y-54616D01*
X59261Y-54460D01*
X59141Y-54340D01*
X58985Y-54275D01*
X58816Y-54275D01*
X58660Y-54339D01*
X58650Y-54349D01*
X58650Y-52213D01*
X58650Y-51850D01*
X58387Y-51850D01*
X58325Y-51912D01*
X58326Y-51976D01*
X58326Y-52075D01*
X58364Y-52166D01*
X58434Y-52236D01*
X58526Y-52274D01*
X58588Y-52275D01*
X58650Y-52213D01*
X58650Y-54349D01*
X58540Y-54459D01*
X58475Y-54615D01*
X58475Y-54784D01*
X58539Y-54940D01*
X58659Y-55060D01*
X58815Y-55125D01*
X58915Y-55125D01*
X60794Y-57004D01*
X60795Y-57005D01*
X60888Y-57067D01*
X60889Y-57068D01*
X60999Y-57089D01*
X61000Y-57090D01*
X61400Y-57090D01*
X62780Y-57090D01*
X62866Y-57176D01*
X62776Y-57176D01*
X62547Y-57271D01*
X62399Y-57417D01*
X62254Y-57271D01*
X62024Y-57176D01*
X61776Y-57176D01*
X61547Y-57271D01*
X61399Y-57417D01*
X61254Y-57271D01*
X61024Y-57176D01*
X60776Y-57176D01*
X60712Y-57202D01*
X58905Y-55395D01*
X58811Y-55332D01*
X58700Y-55310D01*
X58038Y-55310D01*
X57200Y-55310D01*
X56697Y-55310D01*
X56705Y-55305D01*
X57205Y-54805D01*
X57268Y-54711D01*
X57270Y-54698D01*
X57397Y-54744D01*
X57617Y-54733D01*
X57770Y-54670D01*
X57798Y-54575D01*
X57515Y-54292D01*
X57480Y-54257D01*
X57409Y-54186D01*
X57374Y-54151D01*
X57115Y-53892D01*
X57061Y-53760D01*
X56941Y-53640D01*
X56885Y-53617D01*
X57775Y-53617D01*
X57814Y-53710D01*
X57782Y-53742D01*
X57770Y-53702D01*
X57563Y-53628D01*
X57343Y-53639D01*
X57190Y-53702D01*
X57162Y-53797D01*
X57445Y-54080D01*
X57480Y-54115D01*
X57551Y-54186D01*
X57586Y-54221D01*
X57869Y-54504D01*
X57964Y-54476D01*
X58038Y-54269D01*
X58027Y-54049D01*
X57964Y-53896D01*
X57923Y-53883D01*
X57944Y-53862D01*
X57952Y-53870D01*
X58112Y-53937D01*
X58286Y-53937D01*
X58447Y-53871D01*
X58570Y-53748D01*
X58637Y-53588D01*
X58637Y-53414D01*
X58571Y-53253D01*
X58448Y-53130D01*
X58288Y-53063D01*
X58204Y-53063D01*
X58122Y-53007D01*
X58000Y-52983D01*
X52400Y-52983D01*
X52331Y-52983D01*
X51917Y-52568D01*
X51917Y-51700D01*
X51893Y-51579D01*
X51892Y-51578D01*
X51869Y-51544D01*
X51824Y-51476D01*
X51824Y-51475D01*
X51250Y-50901D01*
X51250Y-49212D01*
X51250Y-48988D01*
X51249Y-48749D01*
X51249Y-48650D01*
X51211Y-48559D01*
X51141Y-48489D01*
X51049Y-48451D01*
X50912Y-48450D01*
X50850Y-48512D01*
X50850Y-49050D01*
X51188Y-49050D01*
X51250Y-48988D01*
X51250Y-49212D01*
X51188Y-49150D01*
X50850Y-49150D01*
X50850Y-49688D01*
X50912Y-49750D01*
X51049Y-49749D01*
X51141Y-49711D01*
X51211Y-49641D01*
X51249Y-49550D01*
X51249Y-49451D01*
X51250Y-49212D01*
X51250Y-50901D01*
X50937Y-50588D01*
X50937Y-50514D01*
X50871Y-50353D01*
X50750Y-50232D01*
X50750Y-49688D01*
X50750Y-49150D01*
X50750Y-49050D01*
X50750Y-48512D01*
X50750Y-47088D01*
X50750Y-46550D01*
X50750Y-46450D01*
X50750Y-45912D01*
X50688Y-45850D01*
X50031Y-45851D01*
X49990Y-45867D01*
X49990Y-45293D01*
X49928Y-45231D01*
X49515Y-45231D01*
X49515Y-45684D01*
X49577Y-45746D01*
X49691Y-45745D01*
X49790Y-45745D01*
X49881Y-45707D01*
X49951Y-45637D01*
X49989Y-45545D01*
X49990Y-45293D01*
X49990Y-45867D01*
X49939Y-45889D01*
X49869Y-45959D01*
X49831Y-46050D01*
X49831Y-46149D01*
X49830Y-46388D01*
X49892Y-46450D01*
X50750Y-46450D01*
X50750Y-46550D01*
X49892Y-46550D01*
X49830Y-46612D01*
X49831Y-46851D01*
X49831Y-46950D01*
X49869Y-47041D01*
X49939Y-47111D01*
X50031Y-47149D01*
X50688Y-47150D01*
X50750Y-47088D01*
X50750Y-48512D01*
X50688Y-48450D01*
X50551Y-48451D01*
X50459Y-48489D01*
X50389Y-48559D01*
X50351Y-48650D01*
X50351Y-48749D01*
X50350Y-48988D01*
X50412Y-49050D01*
X50750Y-49050D01*
X50750Y-49150D01*
X50412Y-49150D01*
X50350Y-49212D01*
X50351Y-49451D01*
X50351Y-49550D01*
X50389Y-49641D01*
X50459Y-49711D01*
X50551Y-49749D01*
X50688Y-49750D01*
X50750Y-49688D01*
X50750Y-50232D01*
X50748Y-50230D01*
X50588Y-50163D01*
X50414Y-50163D01*
X50349Y-50189D01*
X50349Y-49550D01*
X50349Y-49451D01*
X50349Y-48651D01*
X50311Y-48559D01*
X50241Y-48489D01*
X50217Y-48478D01*
X50217Y-48300D01*
X50216Y-48299D01*
X50193Y-48179D01*
X50192Y-48178D01*
X50169Y-48144D01*
X50137Y-48095D01*
X50137Y-48094D01*
X50137Y-48014D01*
X50071Y-47853D01*
X49948Y-47730D01*
X49788Y-47663D01*
X49614Y-47663D01*
X49453Y-47729D01*
X49330Y-47852D01*
X49274Y-47985D01*
X49274Y-47826D01*
X49236Y-47734D01*
X49202Y-47700D01*
X49236Y-47666D01*
X49274Y-47574D01*
X49275Y-47512D01*
X49275Y-47288D01*
X49274Y-47226D01*
X49236Y-47134D01*
X49166Y-47064D01*
X49075Y-47026D01*
X48976Y-47026D01*
X48912Y-47025D01*
X48850Y-47087D01*
X48850Y-47350D01*
X49213Y-47350D01*
X49275Y-47288D01*
X49275Y-47512D01*
X49213Y-47450D01*
X48900Y-47450D01*
X48850Y-47450D01*
X48750Y-47450D01*
X48750Y-47350D01*
X48750Y-47087D01*
X48688Y-47025D01*
X48624Y-47026D01*
X48525Y-47026D01*
X48434Y-47064D01*
X48364Y-47134D01*
X48326Y-47226D01*
X48325Y-47288D01*
X48387Y-47350D01*
X48750Y-47350D01*
X48750Y-47450D01*
X48700Y-47450D01*
X48387Y-47450D01*
X48325Y-47512D01*
X48326Y-47574D01*
X48364Y-47666D01*
X48398Y-47700D01*
X48364Y-47734D01*
X48326Y-47825D01*
X48326Y-47924D01*
X48326Y-48174D01*
X48364Y-48266D01*
X48434Y-48336D01*
X48525Y-48374D01*
X48624Y-48374D01*
X48725Y-48374D01*
X49451Y-49099D01*
X49451Y-49549D01*
X49474Y-49607D01*
X49430Y-49652D01*
X49363Y-49812D01*
X49363Y-49986D01*
X49429Y-50147D01*
X49552Y-50270D01*
X49712Y-50337D01*
X49886Y-50337D01*
X50047Y-50271D01*
X50170Y-50148D01*
X50237Y-49988D01*
X50237Y-49814D01*
X50217Y-49765D01*
X50217Y-49720D01*
X50241Y-49711D01*
X50311Y-49641D01*
X50349Y-49550D01*
X50349Y-50189D01*
X50253Y-50229D01*
X50130Y-50352D01*
X50063Y-50512D01*
X50063Y-50686D01*
X50129Y-50847D01*
X50252Y-50970D01*
X50412Y-51037D01*
X50488Y-51037D01*
X51283Y-51831D01*
X51283Y-52297D01*
X51199Y-52094D01*
X51040Y-51935D01*
X50833Y-51849D01*
X50608Y-51849D01*
X50400Y-51935D01*
X50241Y-52094D01*
X50155Y-52301D01*
X50155Y-52526D01*
X50241Y-52734D01*
X50400Y-52893D01*
X50607Y-52979D01*
X50832Y-52979D01*
X51040Y-52893D01*
X51199Y-52734D01*
X51283Y-52531D01*
X51283Y-52700D01*
X51307Y-52822D01*
X51376Y-52924D01*
X51975Y-53524D01*
X51976Y-53524D01*
X52044Y-53569D01*
X52078Y-53592D01*
X52079Y-53593D01*
X52200Y-53617D01*
X52400Y-53617D01*
X56513Y-53617D01*
X56460Y-53639D01*
X56340Y-53759D01*
X56275Y-53915D01*
X56275Y-54084D01*
X56315Y-54183D01*
X56240Y-54259D01*
X56177Y-54410D01*
X55438Y-54410D01*
X55485Y-54299D01*
X55485Y-54074D01*
X55399Y-53866D01*
X55240Y-53707D01*
X55033Y-53621D01*
X54808Y-53621D01*
X54600Y-53707D01*
X54441Y-53866D01*
X54355Y-54073D01*
X54355Y-54144D01*
X54305Y-54095D01*
X54264Y-54067D01*
X54261Y-54060D01*
X54141Y-53940D01*
X53985Y-53875D01*
X53816Y-53875D01*
X53764Y-53896D01*
X53669Y-53868D01*
X53598Y-53939D01*
X53598Y-53797D01*
X53570Y-53702D01*
X53363Y-53628D01*
X53143Y-53639D01*
X52990Y-53702D01*
X52962Y-53797D01*
X53280Y-54115D01*
X53598Y-53797D01*
X53598Y-53939D01*
X53386Y-54151D01*
X53351Y-54186D01*
X53280Y-54257D01*
X53245Y-54292D01*
X53209Y-54328D01*
X53209Y-54186D01*
X52891Y-53868D01*
X52796Y-53896D01*
X52722Y-54103D01*
X52733Y-54323D01*
X52796Y-54476D01*
X52891Y-54504D01*
X53209Y-54186D01*
X53209Y-54328D01*
X52962Y-54575D01*
X52990Y-54670D01*
X53197Y-54744D01*
X53417Y-54733D01*
X53570Y-54670D01*
X53581Y-54628D01*
X53616Y-54663D01*
X53639Y-54640D01*
X53659Y-54660D01*
X53815Y-54725D01*
X53984Y-54725D01*
X54076Y-54687D01*
X54294Y-54905D01*
X54295Y-54905D01*
X54388Y-54968D01*
X54389Y-54968D01*
X54406Y-54971D01*
X54500Y-54990D01*
X55127Y-54990D01*
X55075Y-55115D01*
X55075Y-55284D01*
X55085Y-55310D01*
X54811Y-55310D01*
X54741Y-55240D01*
X54585Y-55175D01*
X54416Y-55175D01*
X54260Y-55239D01*
X54140Y-55359D01*
X54075Y-55515D01*
X54075Y-55575D01*
X54016Y-55575D01*
X53860Y-55639D01*
X53740Y-55759D01*
X53675Y-55915D01*
X53675Y-56084D01*
X53739Y-56240D01*
X53859Y-56360D01*
X54015Y-56425D01*
X54115Y-56425D01*
X54395Y-56705D01*
X54415Y-56718D01*
X54375Y-56815D01*
X54375Y-56984D01*
X54439Y-57140D01*
X54559Y-57260D01*
X54566Y-57263D01*
X54547Y-57271D01*
X54399Y-57417D01*
X54254Y-57271D01*
X54024Y-57176D01*
X53776Y-57176D01*
X53547Y-57271D01*
X53399Y-57417D01*
X53254Y-57271D01*
X53024Y-57176D01*
X52776Y-57176D01*
X52547Y-57271D01*
X52399Y-57417D01*
X52317Y-57334D01*
X52317Y-55700D01*
X52317Y-55401D01*
X52370Y-55348D01*
X52437Y-55188D01*
X52437Y-55014D01*
X52371Y-54853D01*
X52248Y-54730D01*
X52088Y-54663D01*
X51914Y-54663D01*
X51753Y-54729D01*
X51630Y-54852D01*
X51563Y-55012D01*
X51563Y-55186D01*
X51629Y-55347D01*
X51683Y-55401D01*
X51683Y-55700D01*
X51683Y-57214D01*
X51547Y-57271D01*
X51371Y-57446D01*
X51368Y-57452D01*
X51331Y-57440D01*
X51285Y-57486D01*
X51285Y-54299D01*
X51285Y-54074D01*
X51199Y-53866D01*
X51040Y-53707D01*
X50833Y-53621D01*
X50608Y-53621D01*
X50400Y-53707D01*
X50241Y-53866D01*
X50155Y-54073D01*
X50155Y-54298D01*
X50241Y-54506D01*
X50400Y-54665D01*
X50607Y-54751D01*
X50832Y-54751D01*
X51040Y-54665D01*
X51199Y-54506D01*
X51285Y-54299D01*
X51285Y-57486D01*
X51260Y-57511D01*
X51260Y-57369D01*
X51225Y-57268D01*
X50996Y-57183D01*
X50925Y-57185D01*
X50925Y-56085D01*
X50925Y-55916D01*
X50861Y-55760D01*
X50741Y-55640D01*
X50585Y-55575D01*
X50416Y-55575D01*
X50362Y-55597D01*
X50336Y-55534D01*
X50266Y-55464D01*
X50175Y-55426D01*
X50076Y-55426D01*
X49826Y-55426D01*
X49734Y-55464D01*
X49700Y-55498D01*
X49666Y-55464D01*
X49574Y-55426D01*
X49512Y-55425D01*
X49450Y-55487D01*
X49450Y-55800D01*
X49450Y-55850D01*
X49450Y-55950D01*
X49450Y-56000D01*
X49450Y-56313D01*
X49512Y-56375D01*
X49574Y-56374D01*
X49666Y-56336D01*
X49700Y-56302D01*
X49734Y-56336D01*
X49825Y-56374D01*
X49924Y-56374D01*
X50174Y-56374D01*
X50244Y-56345D01*
X50259Y-56360D01*
X50415Y-56425D01*
X50584Y-56425D01*
X50740Y-56361D01*
X50860Y-56241D01*
X50925Y-56085D01*
X50925Y-57185D01*
X50753Y-57193D01*
X50575Y-57268D01*
X50540Y-57369D01*
X50900Y-57729D01*
X51260Y-57369D01*
X51260Y-57511D01*
X51006Y-57765D01*
X50971Y-57800D01*
X50900Y-57871D01*
X50829Y-57800D01*
X50794Y-57765D01*
X50469Y-57440D01*
X50368Y-57475D01*
X50283Y-57704D01*
X50293Y-57947D01*
X50368Y-58125D01*
X50416Y-58141D01*
X50383Y-58175D01*
X49350Y-58175D01*
X49350Y-56313D01*
X49350Y-55950D01*
X49350Y-55850D01*
X49350Y-55487D01*
X49288Y-55425D01*
X49226Y-55426D01*
X49134Y-55464D01*
X49064Y-55534D01*
X49026Y-55625D01*
X49026Y-55724D01*
X49025Y-55788D01*
X49087Y-55850D01*
X49350Y-55850D01*
X49350Y-55950D01*
X49087Y-55950D01*
X49025Y-56012D01*
X49026Y-56076D01*
X49026Y-56175D01*
X49064Y-56266D01*
X49134Y-56336D01*
X49226Y-56374D01*
X49288Y-56375D01*
X49350Y-56313D01*
X49350Y-58175D01*
X48075Y-58175D01*
X48075Y-56250D01*
X48075Y-45489D01*
X48105Y-45562D01*
X48236Y-45694D01*
X48407Y-45765D01*
X48592Y-45765D01*
X48763Y-45694D01*
X48895Y-45563D01*
X48940Y-45453D01*
X48941Y-45545D01*
X48979Y-45637D01*
X49049Y-45707D01*
X49140Y-45745D01*
X49239Y-45745D01*
X49353Y-45746D01*
X49415Y-45684D01*
X49415Y-45281D01*
X49415Y-45231D01*
X49415Y-45131D01*
X49515Y-45131D01*
X49565Y-45131D01*
X49928Y-45131D01*
X49990Y-45069D01*
X49989Y-44817D01*
X49975Y-44784D01*
X50029Y-44731D01*
X50067Y-44639D01*
X50068Y-44613D01*
X50006Y-44551D01*
X49944Y-44551D01*
X49959Y-44545D01*
X50029Y-44475D01*
X50046Y-44432D01*
X50068Y-44411D01*
X50067Y-44385D01*
X50066Y-44384D01*
X50067Y-44384D01*
X50067Y-44285D01*
X50067Y-44129D01*
X50066Y-44128D01*
X50067Y-44128D01*
X50067Y-44029D01*
X50067Y-43873D01*
X50066Y-43872D01*
X50067Y-43872D01*
X50067Y-43804D01*
X50183Y-43781D01*
X50184Y-43781D01*
X50286Y-43712D01*
X50381Y-43617D01*
X51399Y-43617D01*
X51452Y-43670D01*
X51612Y-43737D01*
X51786Y-43737D01*
X51947Y-43671D01*
X52070Y-43548D01*
X52137Y-43388D01*
X52137Y-43311D01*
X52242Y-43205D01*
X52287Y-43250D01*
X52500Y-43250D01*
X52550Y-43250D01*
X52650Y-43250D01*
X52650Y-43350D01*
X52650Y-43400D01*
X52650Y-43713D01*
X52709Y-43772D01*
X52630Y-43852D01*
X52563Y-44012D01*
X52563Y-44186D01*
X52629Y-44347D01*
X52752Y-44470D01*
X52912Y-44537D01*
X52989Y-44537D01*
X54059Y-45607D01*
X54161Y-45675D01*
X54162Y-45676D01*
X54283Y-45700D01*
X55304Y-45700D01*
X55304Y-45798D01*
X55310Y-45798D01*
X55304Y-45804D01*
X55305Y-45835D01*
X55313Y-45855D01*
X55305Y-45875D01*
X55305Y-45974D01*
X55305Y-46150D01*
X55313Y-46170D01*
X55305Y-46190D01*
X55305Y-46289D01*
X55305Y-46465D01*
X55313Y-46485D01*
X55305Y-46505D01*
X55305Y-46604D01*
X55305Y-46780D01*
X55313Y-46799D01*
X55305Y-46819D01*
X55305Y-46918D01*
X55305Y-47094D01*
X55313Y-47114D01*
X55305Y-47134D01*
X55305Y-47233D01*
X55305Y-47297D01*
X54013Y-47297D01*
X53902Y-47319D01*
X53808Y-47382D01*
X53515Y-47675D01*
X53416Y-47675D01*
X53260Y-47739D01*
X53244Y-47754D01*
X53236Y-47734D01*
X53202Y-47700D01*
X53236Y-47666D01*
X53274Y-47574D01*
X53275Y-47512D01*
X53275Y-47288D01*
X53274Y-47226D01*
X53236Y-47134D01*
X53166Y-47064D01*
X53075Y-47026D01*
X52976Y-47026D01*
X52912Y-47025D01*
X52850Y-47087D01*
X52850Y-47350D01*
X53213Y-47350D01*
X53275Y-47288D01*
X53275Y-47512D01*
X53213Y-47450D01*
X52900Y-47450D01*
X52850Y-47450D01*
X52750Y-47450D01*
X52750Y-47350D01*
X52750Y-47087D01*
X52688Y-47025D01*
X52624Y-47026D01*
X52550Y-47026D01*
X52550Y-43713D01*
X52550Y-43350D01*
X52287Y-43350D01*
X52225Y-43412D01*
X52226Y-43476D01*
X52226Y-43575D01*
X52264Y-43666D01*
X52334Y-43736D01*
X52426Y-43774D01*
X52488Y-43775D01*
X52550Y-43713D01*
X52550Y-47026D01*
X52525Y-47026D01*
X52434Y-47064D01*
X52364Y-47134D01*
X52326Y-47226D01*
X52325Y-47288D01*
X52387Y-47350D01*
X52750Y-47350D01*
X52750Y-47450D01*
X52700Y-47450D01*
X52387Y-47450D01*
X52325Y-47512D01*
X52326Y-47574D01*
X52364Y-47666D01*
X52398Y-47700D01*
X52364Y-47734D01*
X52326Y-47825D01*
X52326Y-47924D01*
X52326Y-48025D01*
X52218Y-48133D01*
X52237Y-48088D01*
X52237Y-47914D01*
X52171Y-47753D01*
X52048Y-47630D01*
X51888Y-47563D01*
X51770Y-47563D01*
X51770Y-46612D01*
X51770Y-46388D01*
X51769Y-46149D01*
X51769Y-46050D01*
X51731Y-45959D01*
X51661Y-45889D01*
X51569Y-45851D01*
X50912Y-45850D01*
X50850Y-45912D01*
X50850Y-46450D01*
X51708Y-46450D01*
X51770Y-46388D01*
X51770Y-46612D01*
X51708Y-46550D01*
X50850Y-46550D01*
X50850Y-47088D01*
X50912Y-47150D01*
X51569Y-47149D01*
X51661Y-47111D01*
X51731Y-47041D01*
X51769Y-46950D01*
X51769Y-46851D01*
X51770Y-46612D01*
X51770Y-47563D01*
X51714Y-47563D01*
X51553Y-47629D01*
X51430Y-47752D01*
X51363Y-47912D01*
X51363Y-48086D01*
X51383Y-48134D01*
X51383Y-48479D01*
X51359Y-48489D01*
X51289Y-48559D01*
X51251Y-48650D01*
X51251Y-48749D01*
X51251Y-49549D01*
X51289Y-49641D01*
X51359Y-49711D01*
X51415Y-49734D01*
X51476Y-49824D01*
X51563Y-49911D01*
X51563Y-49986D01*
X51629Y-50147D01*
X51752Y-50270D01*
X51912Y-50337D01*
X52086Y-50337D01*
X52247Y-50271D01*
X52370Y-50148D01*
X52437Y-49988D01*
X52437Y-49814D01*
X52371Y-49653D01*
X52248Y-49530D01*
X52149Y-49488D01*
X52149Y-49451D01*
X52149Y-49099D01*
X52750Y-48498D01*
X53376Y-49124D01*
X53478Y-49192D01*
X53479Y-49193D01*
X53600Y-49217D01*
X54369Y-49217D01*
X54576Y-49424D01*
X55076Y-49924D01*
X55178Y-49993D01*
X55179Y-49993D01*
X55300Y-50017D01*
X55481Y-50017D01*
X55464Y-50034D01*
X55426Y-50126D01*
X55425Y-50188D01*
X55487Y-50250D01*
X55800Y-50250D01*
X55850Y-50250D01*
X55950Y-50250D01*
X55950Y-50350D01*
X55950Y-50400D01*
X55950Y-50613D01*
X56012Y-50675D01*
X56076Y-50674D01*
X56175Y-50674D01*
X56266Y-50636D01*
X56336Y-50566D01*
X56374Y-50474D01*
X56375Y-50412D01*
X56363Y-50400D01*
X56375Y-50400D01*
X56375Y-50384D01*
X56400Y-50395D01*
X56499Y-50395D01*
X56675Y-50395D01*
X56695Y-50386D01*
X56715Y-50395D01*
X56814Y-50395D01*
X56975Y-50395D01*
X56975Y-50484D01*
X57039Y-50640D01*
X57142Y-50743D01*
X56776Y-51110D01*
X55850Y-51110D01*
X55850Y-50613D01*
X55850Y-50350D01*
X55487Y-50350D01*
X55425Y-50412D01*
X55426Y-50474D01*
X55464Y-50566D01*
X55534Y-50636D01*
X55625Y-50674D01*
X55724Y-50674D01*
X55788Y-50675D01*
X55850Y-50613D01*
X55850Y-51110D01*
X54800Y-51110D01*
X54689Y-51132D01*
X54595Y-51195D01*
X54296Y-51493D01*
X54294Y-51495D01*
X53727Y-52062D01*
X53600Y-51935D01*
X53393Y-51849D01*
X53168Y-51849D01*
X52960Y-51935D01*
X52801Y-52094D01*
X52715Y-52301D01*
X52715Y-52526D01*
X52801Y-52734D01*
X52960Y-52893D01*
X53167Y-52979D01*
X53392Y-52979D01*
X53600Y-52893D01*
X53759Y-52734D01*
X53771Y-52704D01*
X53786Y-52704D01*
X53897Y-52682D01*
X53991Y-52619D01*
X54387Y-52223D01*
X54355Y-52301D01*
X54355Y-52526D01*
X54441Y-52734D01*
X54600Y-52893D01*
X54807Y-52979D01*
X55032Y-52979D01*
X55240Y-52893D01*
X55399Y-52734D01*
X55485Y-52527D01*
X55485Y-52302D01*
X55399Y-52094D01*
X55240Y-51935D01*
X55033Y-51849D01*
X54808Y-51849D01*
X54727Y-51882D01*
X54920Y-51690D01*
X56896Y-51690D01*
X57007Y-51668D01*
X57101Y-51605D01*
X57190Y-51516D01*
X57190Y-51922D01*
X57160Y-51935D01*
X57001Y-52094D01*
X56915Y-52301D01*
X56915Y-52526D01*
X57001Y-52734D01*
X57160Y-52893D01*
X57367Y-52979D01*
X57592Y-52979D01*
X57800Y-52893D01*
X57959Y-52734D01*
X58045Y-52527D01*
X58045Y-52302D01*
X57959Y-52094D01*
X57800Y-51935D01*
X57770Y-51922D01*
X57770Y-51564D01*
X57915Y-51625D01*
X58084Y-51625D01*
X58240Y-51561D01*
X58311Y-51490D01*
X58340Y-51490D01*
X58326Y-51525D01*
X58326Y-51624D01*
X58325Y-51688D01*
X58387Y-51750D01*
X58600Y-51750D01*
X58650Y-51750D01*
X58750Y-51750D01*
X58750Y-51850D01*
X58750Y-51900D01*
X58750Y-52213D01*
X58812Y-52275D01*
X58874Y-52274D01*
X58966Y-52236D01*
X59000Y-52202D01*
X59034Y-52236D01*
X59125Y-52274D01*
X59224Y-52274D01*
X59474Y-52274D01*
X59566Y-52236D01*
X59636Y-52166D01*
X59674Y-52075D01*
X59674Y-51976D01*
X59674Y-51526D01*
X59636Y-51434D01*
X59631Y-51429D01*
X59663Y-51398D01*
X59701Y-51307D01*
X59701Y-51208D01*
X59701Y-51011D01*
X62159Y-53469D01*
X62151Y-53491D01*
X62151Y-53709D01*
X62235Y-53911D01*
X62389Y-54065D01*
X62473Y-54100D01*
X62389Y-54135D01*
X62235Y-54289D01*
X62226Y-54310D01*
X61359Y-54310D01*
X61374Y-54275D01*
X61374Y-54176D01*
X61374Y-53926D01*
X61336Y-53834D01*
X61266Y-53764D01*
X61175Y-53726D01*
X61076Y-53726D01*
X60626Y-53726D01*
X60534Y-53764D01*
X60494Y-53803D01*
X60493Y-53804D01*
X60478Y-53807D01*
X60376Y-53876D01*
X60076Y-54176D01*
X60007Y-54278D01*
X59983Y-54400D01*
X59983Y-55100D01*
X60007Y-55222D01*
X60076Y-55324D01*
X60176Y-55424D01*
X60278Y-55492D01*
X60279Y-55493D01*
X60400Y-55517D01*
X62300Y-55517D01*
X64200Y-55517D01*
X64321Y-55493D01*
X64424Y-55424D01*
X64493Y-55321D01*
X64517Y-55200D01*
X64517Y-53200D01*
X64493Y-53079D01*
X64493Y-53078D01*
X64424Y-52976D01*
X64221Y-52773D01*
X64249Y-52709D01*
X64249Y-52499D01*
X64331Y-52417D01*
X64900Y-52417D01*
X66115Y-52417D01*
X66134Y-52436D01*
X66225Y-52474D01*
X66324Y-52474D01*
X66774Y-52474D01*
X66866Y-52436D01*
X66936Y-52366D01*
X66974Y-52275D01*
X66974Y-52176D01*
X66974Y-51926D01*
X66936Y-51834D01*
X66902Y-51800D01*
X66912Y-51790D01*
X67076Y-51790D01*
X67109Y-51869D01*
X67073Y-51958D01*
X67073Y-52057D01*
X67073Y-52451D01*
X67111Y-52543D01*
X67181Y-52613D01*
X67272Y-52651D01*
X67371Y-52651D01*
X67961Y-52651D01*
X68053Y-52613D01*
X68123Y-52543D01*
X68161Y-52452D01*
X68161Y-52353D01*
X68161Y-51959D01*
X68124Y-51870D01*
X68161Y-51782D01*
X68161Y-51683D01*
X68161Y-51289D01*
X68123Y-51197D01*
X68053Y-51127D01*
X67962Y-51089D01*
X67863Y-51089D01*
X67567Y-51089D01*
X67567Y-50964D01*
X67567Y-50629D01*
X67567Y-50529D01*
X67567Y-50194D01*
X67505Y-50132D01*
X67273Y-50133D01*
X67181Y-50171D01*
X67111Y-50241D01*
X67073Y-50332D01*
X67073Y-50431D01*
X67072Y-50467D01*
X67134Y-50529D01*
X67567Y-50529D01*
X67567Y-50629D01*
X67134Y-50629D01*
X67072Y-50691D01*
X67073Y-50727D01*
X67073Y-50826D01*
X67111Y-50917D01*
X67181Y-50987D01*
X67273Y-51025D01*
X67505Y-51026D01*
X67567Y-50964D01*
X67567Y-51089D01*
X67273Y-51089D01*
X67181Y-51127D01*
X67111Y-51197D01*
X67105Y-51210D01*
X66912Y-51210D01*
X66866Y-51164D01*
X66775Y-51126D01*
X66676Y-51126D01*
X66336Y-51126D01*
X66305Y-51095D01*
X66211Y-51032D01*
X66100Y-51010D01*
X65600Y-51010D01*
X65704Y-50906D01*
X65704Y-50905D01*
X65705Y-50905D01*
X66536Y-50074D01*
X66574Y-50074D01*
X66666Y-50036D01*
X66736Y-49966D01*
X66761Y-49904D01*
X67091Y-49904D01*
X67111Y-49952D01*
X67181Y-50022D01*
X67272Y-50060D01*
X67371Y-50060D01*
X67961Y-50060D01*
X68053Y-50022D01*
X68123Y-49952D01*
X68161Y-49861D01*
X68161Y-49762D01*
X68161Y-49368D01*
X68123Y-49276D01*
X68053Y-49206D01*
X67962Y-49168D01*
X67863Y-49168D01*
X67273Y-49168D01*
X67181Y-49206D01*
X67111Y-49276D01*
X67090Y-49324D01*
X66773Y-49324D01*
X66736Y-49234D01*
X66666Y-49164D01*
X66575Y-49126D01*
X66476Y-49126D01*
X66226Y-49126D01*
X66219Y-49128D01*
X66374Y-48974D01*
X66674Y-48974D01*
X66766Y-48936D01*
X66785Y-48917D01*
X67089Y-48917D01*
X67111Y-48968D01*
X67181Y-49038D01*
X67272Y-49076D01*
X67371Y-49076D01*
X67961Y-49076D01*
X68053Y-49038D01*
X68123Y-48968D01*
X68161Y-48877D01*
X68161Y-48778D01*
X68161Y-48384D01*
X68128Y-48305D01*
X68161Y-48227D01*
X68161Y-48128D01*
X68162Y-48092D01*
X68162Y-47868D01*
X68161Y-47832D01*
X68161Y-47733D01*
X68124Y-47645D01*
X68161Y-47558D01*
X68161Y-47459D01*
X68162Y-47423D01*
X68100Y-47361D01*
X67667Y-47361D01*
X67667Y-47595D01*
X67667Y-47696D01*
X67667Y-47930D01*
X68100Y-47930D01*
X68162Y-47868D01*
X68162Y-48092D01*
X68100Y-48030D01*
X67717Y-48030D01*
X67667Y-48030D01*
X67567Y-48030D01*
X67567Y-47930D01*
X67567Y-47696D01*
X67567Y-47595D01*
X67567Y-47361D01*
X67134Y-47361D01*
X67072Y-47423D01*
X67073Y-47459D01*
X67073Y-47558D01*
X67109Y-47645D01*
X67073Y-47733D01*
X67073Y-47832D01*
X67072Y-47868D01*
X67134Y-47930D01*
X67567Y-47930D01*
X67567Y-48030D01*
X67517Y-48030D01*
X67134Y-48030D01*
X67072Y-48092D01*
X67073Y-48128D01*
X67073Y-48227D01*
X67096Y-48283D01*
X66819Y-48283D01*
X66836Y-48266D01*
X66874Y-48174D01*
X66875Y-48112D01*
X66875Y-47888D01*
X66874Y-47826D01*
X66836Y-47734D01*
X66766Y-47664D01*
X66675Y-47626D01*
X66576Y-47626D01*
X66512Y-47625D01*
X66450Y-47687D01*
X66450Y-47950D01*
X66813Y-47950D01*
X66875Y-47888D01*
X66875Y-48112D01*
X66813Y-48050D01*
X66500Y-48050D01*
X66450Y-48050D01*
X66350Y-48050D01*
X66300Y-48050D01*
X65987Y-48050D01*
X65925Y-48112D01*
X65926Y-48174D01*
X65964Y-48266D01*
X65981Y-48283D01*
X65901Y-48283D01*
X65848Y-48230D01*
X65688Y-48163D01*
X65514Y-48163D01*
X65353Y-48229D01*
X65230Y-48352D01*
X65163Y-48512D01*
X65163Y-48686D01*
X65229Y-48847D01*
X65352Y-48970D01*
X65496Y-49030D01*
X65483Y-49100D01*
X65483Y-49215D01*
X65464Y-49234D01*
X65426Y-49325D01*
X65426Y-49424D01*
X65426Y-49733D01*
X65285Y-49675D01*
X65116Y-49675D01*
X64960Y-49739D01*
X64840Y-49859D01*
X64775Y-50015D01*
X64775Y-50114D01*
X64679Y-50210D01*
X64500Y-50210D01*
X64406Y-50228D01*
X64388Y-50232D01*
X64294Y-50295D01*
X64114Y-50475D01*
X64016Y-50475D01*
X63860Y-50539D01*
X63740Y-50659D01*
X63675Y-50815D01*
X63675Y-50984D01*
X63739Y-51140D01*
X63844Y-51245D01*
X63039Y-52051D01*
X62951Y-52051D01*
X62561Y-52051D01*
X62377Y-51867D01*
X62515Y-51925D01*
X62684Y-51925D01*
X62840Y-51861D01*
X62960Y-51741D01*
X63025Y-51585D01*
X63025Y-51416D01*
X62961Y-51260D01*
X62926Y-51225D01*
X63084Y-51225D01*
X63240Y-51161D01*
X63360Y-51041D01*
X63425Y-50885D01*
X63425Y-50785D01*
X63685Y-50525D01*
X63784Y-50525D01*
X63940Y-50461D01*
X64060Y-50341D01*
X64125Y-50185D01*
X64125Y-50016D01*
X64084Y-49917D01*
X64100Y-49902D01*
X64134Y-49936D01*
X64225Y-49974D01*
X64324Y-49974D01*
X64574Y-49974D01*
X64666Y-49936D01*
X64736Y-49866D01*
X64774Y-49775D01*
X64774Y-49676D01*
X64774Y-49226D01*
X64736Y-49134D01*
X64690Y-49088D01*
X64690Y-48975D01*
X64689Y-48974D01*
X64668Y-48864D01*
X64667Y-48863D01*
X64646Y-48832D01*
X64605Y-48770D01*
X64605Y-48769D01*
X64519Y-48683D01*
X64519Y-47284D01*
X64457Y-47222D01*
X64103Y-47222D01*
X64103Y-47734D01*
X64165Y-47796D01*
X64220Y-47795D01*
X64319Y-47795D01*
X64410Y-47757D01*
X64480Y-47687D01*
X64518Y-47595D01*
X64519Y-47284D01*
X64519Y-48683D01*
X64518Y-48682D01*
X64518Y-48205D01*
X64480Y-48113D01*
X64410Y-48043D01*
X64319Y-48005D01*
X64220Y-48005D01*
X63840Y-48005D01*
X63548Y-47713D01*
X63574Y-47687D01*
X63600Y-47624D01*
X63626Y-47687D01*
X63696Y-47757D01*
X63787Y-47795D01*
X63886Y-47795D01*
X63941Y-47796D01*
X64003Y-47734D01*
X64003Y-47272D01*
X64003Y-47222D01*
X64003Y-47122D01*
X64103Y-47122D01*
X64153Y-47122D01*
X64457Y-47122D01*
X64519Y-47060D01*
X64518Y-46774D01*
X64574Y-46774D01*
X64666Y-46736D01*
X64736Y-46666D01*
X64774Y-46575D01*
X64774Y-46476D01*
X64775Y-46412D01*
X64713Y-46350D01*
X64500Y-46350D01*
X64450Y-46350D01*
X64350Y-46350D01*
X64350Y-46250D01*
X64450Y-46250D01*
X64500Y-46250D01*
X64713Y-46250D01*
X64775Y-46188D01*
X64774Y-46124D01*
X64774Y-46025D01*
X64745Y-45955D01*
X64760Y-45941D01*
X64825Y-45785D01*
X64825Y-45685D01*
X65205Y-45305D01*
X65509Y-45000D01*
X65463Y-45112D01*
X65463Y-45286D01*
X65529Y-45447D01*
X65583Y-45501D01*
X65583Y-46315D01*
X65564Y-46334D01*
X65526Y-46425D01*
X65526Y-46524D01*
X65526Y-46974D01*
X65564Y-47066D01*
X65634Y-47136D01*
X65654Y-47144D01*
X65640Y-47159D01*
X65575Y-47315D01*
X65575Y-47484D01*
X65639Y-47640D01*
X65759Y-47760D01*
X65915Y-47825D01*
X65926Y-47825D01*
X65926Y-47826D01*
X65925Y-47888D01*
X65987Y-47950D01*
X66350Y-47950D01*
X66350Y-47687D01*
X66332Y-47669D01*
X66360Y-47641D01*
X66425Y-47485D01*
X66425Y-47385D01*
X66636Y-47174D01*
X66674Y-47174D01*
X66766Y-47136D01*
X66836Y-47066D01*
X66874Y-46975D01*
X66874Y-46932D01*
X67091Y-46932D01*
X67109Y-46976D01*
X67073Y-47064D01*
X67073Y-47163D01*
X67072Y-47199D01*
X67134Y-47261D01*
X67517Y-47261D01*
X67567Y-47261D01*
X67667Y-47261D01*
X67717Y-47261D01*
X68100Y-47261D01*
X68162Y-47199D01*
X68161Y-47163D01*
X68161Y-47064D01*
X68124Y-46976D01*
X68161Y-46889D01*
X68161Y-46790D01*
X68161Y-46396D01*
X68123Y-46304D01*
X68053Y-46234D01*
X67962Y-46196D01*
X67863Y-46196D01*
X67273Y-46196D01*
X67181Y-46234D01*
X67111Y-46304D01*
X67090Y-46352D01*
X66843Y-46352D01*
X66836Y-46334D01*
X66766Y-46264D01*
X66675Y-46226D01*
X66576Y-46226D01*
X66326Y-46226D01*
X66234Y-46264D01*
X66217Y-46281D01*
X66217Y-45986D01*
X66239Y-46040D01*
X66359Y-46160D01*
X66515Y-46225D01*
X66684Y-46225D01*
X66840Y-46161D01*
X66960Y-46041D01*
X66999Y-45947D01*
X67091Y-45947D01*
X67111Y-45995D01*
X67181Y-46065D01*
X67272Y-46103D01*
X67371Y-46103D01*
X67961Y-46103D01*
X68053Y-46065D01*
X68123Y-45995D01*
X68161Y-45904D01*
X68161Y-45805D01*
X68161Y-45411D01*
X68123Y-45319D01*
X68053Y-45249D01*
X67962Y-45211D01*
X67863Y-45211D01*
X67273Y-45211D01*
X67181Y-45249D01*
X67111Y-45319D01*
X67090Y-45367D01*
X66743Y-45367D01*
X66690Y-45377D01*
X66685Y-45375D01*
X66516Y-45375D01*
X66360Y-45439D01*
X66240Y-45559D01*
X66217Y-45614D01*
X66217Y-45501D01*
X66270Y-45448D01*
X66337Y-45288D01*
X66337Y-45211D01*
X67073Y-44475D01*
X67073Y-44525D01*
X67073Y-44919D01*
X67111Y-45011D01*
X67181Y-45081D01*
X67272Y-45119D01*
X67371Y-45119D01*
X67961Y-45119D01*
X68053Y-45081D01*
X68123Y-45011D01*
X68161Y-44920D01*
X68161Y-44821D01*
X68161Y-44427D01*
X68123Y-44335D01*
X68053Y-44265D01*
X67962Y-44227D01*
X67863Y-44227D01*
X67321Y-44227D01*
X69931Y-41617D01*
X72500Y-41617D01*
X72621Y-41593D01*
X72622Y-41593D01*
X72724Y-41524D01*
X73374Y-40874D01*
X73574Y-40874D01*
X73666Y-40836D01*
X73736Y-40766D01*
X73774Y-40675D01*
X73774Y-40576D01*
X73774Y-40126D01*
X73736Y-40034D01*
X73666Y-39964D01*
X73575Y-39926D01*
X73476Y-39926D01*
X73226Y-39926D01*
X73161Y-39952D01*
X73161Y-37206D01*
X73161Y-36281D01*
X72433Y-36281D01*
X72371Y-36343D01*
X72372Y-36969D01*
X72372Y-37068D01*
X72410Y-37159D01*
X72480Y-37229D01*
X72572Y-37267D01*
X73099Y-37268D01*
X73161Y-37206D01*
X73161Y-39952D01*
X73134Y-39964D01*
X73100Y-39998D01*
X73066Y-39964D01*
X72975Y-39926D01*
X72876Y-39926D01*
X72626Y-39926D01*
X72534Y-39964D01*
X72464Y-40034D01*
X72432Y-40110D01*
X71700Y-40110D01*
X71589Y-40132D01*
X71495Y-40195D01*
X70990Y-40699D01*
X70991Y-40477D01*
X70991Y-40253D01*
X70990Y-40021D01*
X70990Y-39922D01*
X70952Y-39831D01*
X70882Y-39761D01*
X70790Y-39723D01*
X70666Y-39722D01*
X70604Y-39784D01*
X70604Y-40315D01*
X70929Y-40315D01*
X70991Y-40253D01*
X70991Y-40477D01*
X70929Y-40415D01*
X70654Y-40415D01*
X70604Y-40415D01*
X70504Y-40415D01*
X70504Y-40315D01*
X70504Y-40265D01*
X70504Y-39784D01*
X70442Y-39722D01*
X70318Y-39723D01*
X70258Y-39747D01*
X70200Y-39723D01*
X70101Y-39723D01*
X69727Y-39723D01*
X69667Y-39747D01*
X69609Y-39723D01*
X69510Y-39723D01*
X69136Y-39723D01*
X69077Y-39747D01*
X69019Y-39723D01*
X68920Y-39723D01*
X68546Y-39723D01*
X68486Y-39747D01*
X68428Y-39723D01*
X68329Y-39723D01*
X67955Y-39723D01*
X67896Y-39747D01*
X67838Y-39723D01*
X67739Y-39723D01*
X67365Y-39723D01*
X67305Y-39747D01*
X67247Y-39723D01*
X67148Y-39723D01*
X66774Y-39723D01*
X66715Y-39747D01*
X66657Y-39723D01*
X66558Y-39723D01*
X66184Y-39723D01*
X66124Y-39747D01*
X66066Y-39723D01*
X65967Y-39723D01*
X65593Y-39723D01*
X65534Y-39747D01*
X65476Y-39723D01*
X65377Y-39723D01*
X65003Y-39723D01*
X64943Y-39747D01*
X64885Y-39723D01*
X64786Y-39723D01*
X64412Y-39723D01*
X64352Y-39747D01*
X64294Y-39723D01*
X64195Y-39723D01*
X63821Y-39723D01*
X63762Y-39747D01*
X63704Y-39723D01*
X63605Y-39723D01*
X63231Y-39723D01*
X63171Y-39747D01*
X63113Y-39723D01*
X63014Y-39723D01*
X62640Y-39723D01*
X62581Y-39747D01*
X62523Y-39723D01*
X62424Y-39723D01*
X62050Y-39723D01*
X61990Y-39747D01*
X61932Y-39723D01*
X61833Y-39723D01*
X61459Y-39723D01*
X61400Y-39747D01*
X61342Y-39723D01*
X61243Y-39723D01*
X60869Y-39723D01*
X60809Y-39747D01*
X60751Y-39723D01*
X60652Y-39723D01*
X60278Y-39723D01*
X60219Y-39747D01*
X60161Y-39723D01*
X60062Y-39723D01*
X59688Y-39723D01*
X59628Y-39747D01*
X59570Y-39723D01*
X59471Y-39723D01*
X59097Y-39723D01*
X59038Y-39747D01*
X58980Y-39723D01*
X58881Y-39723D01*
X58507Y-39723D01*
X58447Y-39747D01*
X58389Y-39723D01*
X58290Y-39723D01*
X57916Y-39723D01*
X57856Y-39747D01*
X57798Y-39723D01*
X57699Y-39723D01*
X57325Y-39723D01*
X57266Y-39747D01*
X57208Y-39723D01*
X57109Y-39723D01*
X56735Y-39723D01*
X56675Y-39747D01*
X56617Y-39723D01*
X56518Y-39723D01*
X56144Y-39723D01*
X56085Y-39747D01*
X56027Y-39723D01*
X55928Y-39723D01*
X55554Y-39723D01*
X55494Y-39747D01*
X55436Y-39723D01*
X55337Y-39723D01*
X54963Y-39723D01*
X54904Y-39747D01*
X54846Y-39723D01*
X54747Y-39723D01*
X54373Y-39723D01*
X54313Y-39747D01*
X54255Y-39723D01*
X54156Y-39723D01*
X53782Y-39723D01*
X53723Y-39747D01*
X53665Y-39723D01*
X53566Y-39723D01*
X53192Y-39723D01*
X53132Y-39747D01*
X53074Y-39723D01*
X52975Y-39723D01*
X52601Y-39723D01*
X52541Y-39747D01*
X52483Y-39723D01*
X52384Y-39723D01*
X52010Y-39723D01*
X51918Y-39761D01*
X51848Y-39831D01*
X51810Y-39922D01*
X51810Y-40021D01*
X51810Y-40807D01*
X51848Y-40899D01*
X51918Y-40969D01*
X51929Y-40973D01*
X51929Y-41153D01*
X51830Y-41252D01*
X51763Y-41412D01*
X51763Y-41586D01*
X51829Y-41747D01*
X51952Y-41870D01*
X52112Y-41937D01*
X52286Y-41937D01*
X52447Y-41871D01*
X52570Y-41748D01*
X52637Y-41588D01*
X52637Y-41414D01*
X52571Y-41253D01*
X52563Y-41245D01*
X52563Y-40991D01*
X52600Y-41007D01*
X52699Y-41007D01*
X53073Y-41007D01*
X53132Y-40982D01*
X53138Y-40984D01*
X53138Y-41628D01*
X53160Y-41739D01*
X53223Y-41833D01*
X53310Y-41920D01*
X53310Y-42094D01*
X53303Y-42094D01*
X52989Y-42094D01*
X52900Y-42130D01*
X52812Y-42094D01*
X52713Y-42094D01*
X52399Y-42094D01*
X52307Y-42132D01*
X52237Y-42202D01*
X52199Y-42293D01*
X52199Y-42353D01*
X51689Y-42863D01*
X51614Y-42863D01*
X51453Y-42929D01*
X51399Y-42983D01*
X50429Y-42983D01*
X50429Y-36343D01*
X50367Y-36281D01*
X49639Y-36281D01*
X49639Y-37206D01*
X49701Y-37268D01*
X50228Y-37267D01*
X50320Y-37229D01*
X50390Y-37159D01*
X50428Y-37068D01*
X50428Y-36969D01*
X50429Y-36343D01*
X50429Y-42983D01*
X50250Y-42983D01*
X50129Y-43007D01*
X50094Y-43030D01*
X50025Y-43076D01*
X49989Y-43111D01*
X49990Y-42931D01*
X49990Y-42707D01*
X49989Y-42455D01*
X49951Y-42363D01*
X49881Y-42293D01*
X49790Y-42255D01*
X49691Y-42255D01*
X49577Y-42254D01*
X49539Y-42292D01*
X49539Y-37206D01*
X49539Y-36281D01*
X48811Y-36281D01*
X48749Y-36343D01*
X48750Y-36969D01*
X48750Y-37068D01*
X48788Y-37159D01*
X48858Y-37229D01*
X48950Y-37267D01*
X49477Y-37268D01*
X49539Y-37206D01*
X49539Y-42292D01*
X49515Y-42316D01*
X49515Y-42769D01*
X49928Y-42769D01*
X49990Y-42707D01*
X49990Y-42931D01*
X49928Y-42869D01*
X49565Y-42869D01*
X49515Y-42869D01*
X49415Y-42869D01*
X49415Y-42769D01*
X49415Y-42719D01*
X49415Y-42316D01*
X49353Y-42254D01*
X49239Y-42255D01*
X49140Y-42255D01*
X49049Y-42293D01*
X48979Y-42363D01*
X48941Y-42455D01*
X48940Y-42547D01*
X48895Y-42438D01*
X48764Y-42306D01*
X48593Y-42235D01*
X48408Y-42235D01*
X48237Y-42306D01*
X48105Y-42437D01*
X48075Y-42509D01*
X48075Y-35325D01*
X48250Y-35325D01*
X48778Y-35325D01*
X48750Y-35394D01*
X48750Y-35493D01*
X48749Y-36119D01*
X48811Y-36181D01*
X49489Y-36181D01*
X49539Y-36181D01*
X49639Y-36181D01*
X49689Y-36181D01*
X50367Y-36181D01*
X50429Y-36119D01*
X50428Y-35493D01*
X50428Y-35394D01*
X50399Y-35325D01*
X72400Y-35325D01*
X72372Y-35394D01*
X72372Y-35493D01*
X72371Y-36119D01*
X72433Y-36181D01*
X73111Y-36181D01*
X73161Y-36181D01*
X73261Y-36181D01*
X73311Y-36181D01*
X73989Y-36181D01*
X74051Y-36119D01*
X74050Y-35493D01*
X74050Y-35394D01*
X74021Y-35325D01*
X74175Y-35325D01*
X74175Y-38750D01*
X74200Y-38874D01*
X74270Y-38980D01*
X77425Y-42135D01*
X77425Y-43082D01*
X77288Y-43026D01*
X77079Y-43026D01*
X76886Y-43106D01*
X76738Y-43253D01*
X76658Y-43446D01*
X76658Y-43655D01*
X76738Y-43848D01*
X76885Y-43996D01*
X77078Y-44076D01*
X77287Y-44076D01*
X77425Y-44018D01*
X77425Y-52590D01*
X77288Y-52534D01*
X77079Y-52534D01*
X76886Y-52614D01*
X76738Y-52761D01*
X76658Y-52954D01*
X76658Y-53163D01*
X76666Y-53183D01*
X76527Y-53183D01*
X76527Y-42758D01*
X76527Y-42534D01*
X76526Y-42459D01*
X76526Y-42360D01*
X76488Y-42269D01*
X76418Y-42199D01*
X76326Y-42161D01*
X75996Y-42160D01*
X75934Y-42222D01*
X75934Y-42596D01*
X76465Y-42596D01*
X76527Y-42534D01*
X76527Y-42758D01*
X76465Y-42696D01*
X75934Y-42696D01*
X75934Y-43070D01*
X75996Y-43132D01*
X76326Y-43131D01*
X76418Y-43093D01*
X76488Y-43023D01*
X76526Y-42932D01*
X76526Y-42833D01*
X76527Y-42758D01*
X76527Y-53183D01*
X76469Y-53183D01*
X76407Y-53245D01*
X76407Y-53619D01*
X76938Y-53619D01*
X77000Y-53557D01*
X76999Y-53551D01*
X77078Y-53584D01*
X77287Y-53584D01*
X77425Y-53526D01*
X77425Y-54365D01*
X77425Y-54365D01*
G37*
G54D37*
X77425Y-54365D02*
X77000Y-54790D01*
X77000Y-53781D01*
X76938Y-53719D01*
X76407Y-53719D01*
X76407Y-54093D01*
X76469Y-54155D01*
X76799Y-54154D01*
X76891Y-54116D01*
X76961Y-54046D01*
X76999Y-53955D01*
X76999Y-53856D01*
X77000Y-53781D01*
X77000Y-54790D01*
X76307Y-55483D01*
X76307Y-54093D01*
X76307Y-53719D01*
X76307Y-53619D01*
X76307Y-53245D01*
X76245Y-53183D01*
X75915Y-53184D01*
X75834Y-53217D01*
X75834Y-43070D01*
X75834Y-42696D01*
X75834Y-42596D01*
X75834Y-42222D01*
X75772Y-42160D01*
X75442Y-42161D01*
X75350Y-42199D01*
X75280Y-42269D01*
X75242Y-42360D01*
X75242Y-42459D01*
X75241Y-42534D01*
X75303Y-42596D01*
X75834Y-42596D01*
X75834Y-42696D01*
X75303Y-42696D01*
X75241Y-42758D01*
X75242Y-42833D01*
X75242Y-42932D01*
X75280Y-43023D01*
X75350Y-43093D01*
X75442Y-43131D01*
X75772Y-43132D01*
X75834Y-43070D01*
X75834Y-53217D01*
X75823Y-53222D01*
X75753Y-53292D01*
X75715Y-53383D01*
X75715Y-53482D01*
X75714Y-53557D01*
X75776Y-53619D01*
X76307Y-53619D01*
X76307Y-53719D01*
X75776Y-53719D01*
X75714Y-53781D01*
X75715Y-53856D01*
X75715Y-53955D01*
X75753Y-54046D01*
X75823Y-54116D01*
X75915Y-54154D01*
X76245Y-54155D01*
X76307Y-54093D01*
X76307Y-55483D01*
X74051Y-57739D01*
X74051Y-36343D01*
X73989Y-36281D01*
X73261Y-36281D01*
X73261Y-37206D01*
X73323Y-37268D01*
X73850Y-37267D01*
X73942Y-37229D01*
X74012Y-37159D01*
X74050Y-37068D01*
X74050Y-36969D01*
X74051Y-36343D01*
X74051Y-57739D01*
X73615Y-58175D01*
X68162Y-58175D01*
X68162Y-53643D01*
X68162Y-53419D01*
X68162Y-50691D01*
X68162Y-50467D01*
X68161Y-50431D01*
X68161Y-50332D01*
X68123Y-50241D01*
X68053Y-50171D01*
X67961Y-50133D01*
X67729Y-50132D01*
X67667Y-50194D01*
X67667Y-50529D01*
X68100Y-50529D01*
X68162Y-50467D01*
X68162Y-50691D01*
X68100Y-50629D01*
X67667Y-50629D01*
X67667Y-50964D01*
X67729Y-51026D01*
X67961Y-51025D01*
X68053Y-50987D01*
X68123Y-50917D01*
X68161Y-50826D01*
X68161Y-50727D01*
X68162Y-50691D01*
X68162Y-53419D01*
X68161Y-53383D01*
X68161Y-53284D01*
X68123Y-53193D01*
X68053Y-53123D01*
X67961Y-53085D01*
X67729Y-53084D01*
X67667Y-53146D01*
X67667Y-53481D01*
X68100Y-53481D01*
X68162Y-53419D01*
X68162Y-53643D01*
X68100Y-53581D01*
X67667Y-53581D01*
X67667Y-53916D01*
X67729Y-53978D01*
X67961Y-53977D01*
X68053Y-53939D01*
X68123Y-53869D01*
X68161Y-53778D01*
X68161Y-53679D01*
X68162Y-53643D01*
X68162Y-58175D01*
X67567Y-58175D01*
X67567Y-53916D01*
X67567Y-53581D01*
X67567Y-53481D01*
X67567Y-53146D01*
X67505Y-53084D01*
X67273Y-53085D01*
X67181Y-53123D01*
X67111Y-53193D01*
X67073Y-53284D01*
X67073Y-53383D01*
X67072Y-53419D01*
X67134Y-53481D01*
X67567Y-53481D01*
X67567Y-53581D01*
X67134Y-53581D01*
X67072Y-53643D01*
X67073Y-53679D01*
X67073Y-53778D01*
X67111Y-53869D01*
X67181Y-53939D01*
X67273Y-53977D01*
X67505Y-53978D01*
X67567Y-53916D01*
X67567Y-58175D01*
X66517Y-58175D01*
X66416Y-58175D01*
X66383Y-58141D01*
X66432Y-58125D01*
X66517Y-57896D01*
X66507Y-57653D01*
X66432Y-57475D01*
X66331Y-57440D01*
X66260Y-57511D01*
X66260Y-57369D01*
X66225Y-57268D01*
X65996Y-57183D01*
X65753Y-57193D01*
X65575Y-57268D01*
X65540Y-57369D01*
X65900Y-57729D01*
X66260Y-57369D01*
X66260Y-57511D01*
X66006Y-57765D01*
X65971Y-57800D01*
X65900Y-57871D01*
X65829Y-57800D01*
X65794Y-57765D01*
X65469Y-57440D01*
X65431Y-57452D01*
X65429Y-57447D01*
X65254Y-57271D01*
X65024Y-57176D01*
X64776Y-57176D01*
X64547Y-57271D01*
X64399Y-57417D01*
X64254Y-57271D01*
X64024Y-57176D01*
X63776Y-57176D01*
X63712Y-57202D01*
X63105Y-56595D01*
X63011Y-56532D01*
X62900Y-56510D01*
X61400Y-56510D01*
X61120Y-56510D01*
X59325Y-54715D01*
X59325Y-54616D01*
X59261Y-54460D01*
X59141Y-54340D01*
X58985Y-54275D01*
X58816Y-54275D01*
X58660Y-54339D01*
X58650Y-54349D01*
X58650Y-52213D01*
X58650Y-51850D01*
X58387Y-51850D01*
X58325Y-51912D01*
X58326Y-51976D01*
X58326Y-52075D01*
X58364Y-52166D01*
X58434Y-52236D01*
X58526Y-52274D01*
X58588Y-52275D01*
X58650Y-52213D01*
X58650Y-54349D01*
X58540Y-54459D01*
X58475Y-54615D01*
X58475Y-54784D01*
X58539Y-54940D01*
X58659Y-55060D01*
X58815Y-55125D01*
X58915Y-55125D01*
X60794Y-57004D01*
X60795Y-57005D01*
X60888Y-57067D01*
X60889Y-57068D01*
X60999Y-57089D01*
X61000Y-57090D01*
X61400Y-57090D01*
X62780Y-57090D01*
X62866Y-57176D01*
X62776Y-57176D01*
X62547Y-57271D01*
X62399Y-57417D01*
X62254Y-57271D01*
X62024Y-57176D01*
X61776Y-57176D01*
X61547Y-57271D01*
X61399Y-57417D01*
X61254Y-57271D01*
X61024Y-57176D01*
X60776Y-57176D01*
X60712Y-57202D01*
X58905Y-55395D01*
X58811Y-55332D01*
X58700Y-55310D01*
X58038Y-55310D01*
X57200Y-55310D01*
X56697Y-55310D01*
X56705Y-55305D01*
X57205Y-54805D01*
X57268Y-54711D01*
X57270Y-54698D01*
X57397Y-54744D01*
X57617Y-54733D01*
X57770Y-54670D01*
X57798Y-54575D01*
X57515Y-54292D01*
X57480Y-54257D01*
X57409Y-54186D01*
X57374Y-54151D01*
X57115Y-53892D01*
X57061Y-53760D01*
X56941Y-53640D01*
X56885Y-53617D01*
X57775Y-53617D01*
X57814Y-53710D01*
X57782Y-53742D01*
X57770Y-53702D01*
X57563Y-53628D01*
X57343Y-53639D01*
X57190Y-53702D01*
X57162Y-53797D01*
X57445Y-54080D01*
X57480Y-54115D01*
X57551Y-54186D01*
X57586Y-54221D01*
X57869Y-54504D01*
X57964Y-54476D01*
X58038Y-54269D01*
X58027Y-54049D01*
X57964Y-53896D01*
X57923Y-53883D01*
X57944Y-53862D01*
X57952Y-53870D01*
X58112Y-53937D01*
X58286Y-53937D01*
X58447Y-53871D01*
X58570Y-53748D01*
X58637Y-53588D01*
X58637Y-53414D01*
X58571Y-53253D01*
X58448Y-53130D01*
X58288Y-53063D01*
X58204Y-53063D01*
X58122Y-53007D01*
X58000Y-52983D01*
X52400Y-52983D01*
X52331Y-52983D01*
X51917Y-52568D01*
X51917Y-51700D01*
X51893Y-51579D01*
X51892Y-51578D01*
X51869Y-51544D01*
X51824Y-51476D01*
X51824Y-51475D01*
X51250Y-50901D01*
X51250Y-49212D01*
X51250Y-48988D01*
X51249Y-48749D01*
X51249Y-48650D01*
X51211Y-48559D01*
X51141Y-48489D01*
X51049Y-48451D01*
X50912Y-48450D01*
X50850Y-48512D01*
X50850Y-49050D01*
X51188Y-49050D01*
X51250Y-48988D01*
X51250Y-49212D01*
X51188Y-49150D01*
X50850Y-49150D01*
X50850Y-49688D01*
X50912Y-49750D01*
X51049Y-49749D01*
X51141Y-49711D01*
X51211Y-49641D01*
X51249Y-49550D01*
X51249Y-49451D01*
X51250Y-49212D01*
X51250Y-50901D01*
X50937Y-50588D01*
X50937Y-50514D01*
X50871Y-50353D01*
X50750Y-50232D01*
X50750Y-49688D01*
X50750Y-49150D01*
X50750Y-49050D01*
X50750Y-48512D01*
X50750Y-47088D01*
X50750Y-46550D01*
X50750Y-46450D01*
X50750Y-45912D01*
X50688Y-45850D01*
X50031Y-45851D01*
X49990Y-45867D01*
X49990Y-45293D01*
X49928Y-45231D01*
X49515Y-45231D01*
X49515Y-45684D01*
X49577Y-45746D01*
X49691Y-45745D01*
X49790Y-45745D01*
X49881Y-45707D01*
X49951Y-45637D01*
X49989Y-45545D01*
X49990Y-45293D01*
X49990Y-45867D01*
X49939Y-45889D01*
X49869Y-45959D01*
X49831Y-46050D01*
X49831Y-46149D01*
X49830Y-46388D01*
X49892Y-46450D01*
X50750Y-46450D01*
X50750Y-46550D01*
X49892Y-46550D01*
X49830Y-46612D01*
X49831Y-46851D01*
X49831Y-46950D01*
X49869Y-47041D01*
X49939Y-47111D01*
X50031Y-47149D01*
X50688Y-47150D01*
X50750Y-47088D01*
X50750Y-48512D01*
X50688Y-48450D01*
X50551Y-48451D01*
X50459Y-48489D01*
X50389Y-48559D01*
X50351Y-48650D01*
X50351Y-48749D01*
X50350Y-48988D01*
X50412Y-49050D01*
X50750Y-49050D01*
X50750Y-49150D01*
X50412Y-49150D01*
X50350Y-49212D01*
X50351Y-49451D01*
X50351Y-49550D01*
X50389Y-49641D01*
X50459Y-49711D01*
X50551Y-49749D01*
X50688Y-49750D01*
X50750Y-49688D01*
X50750Y-50232D01*
X50748Y-50230D01*
X50588Y-50163D01*
X50414Y-50163D01*
X50349Y-50189D01*
X50349Y-49550D01*
X50349Y-49451D01*
X50349Y-48651D01*
X50311Y-48559D01*
X50241Y-48489D01*
X50217Y-48478D01*
X50217Y-48300D01*
X50216Y-48299D01*
X50193Y-48179D01*
X50192Y-48178D01*
X50169Y-48144D01*
X50137Y-48095D01*
X50137Y-48094D01*
X50137Y-48014D01*
X50071Y-47853D01*
X49948Y-47730D01*
X49788Y-47663D01*
X49614Y-47663D01*
X49453Y-47729D01*
X49330Y-47852D01*
X49274Y-47985D01*
X49274Y-47826D01*
X49236Y-47734D01*
X49202Y-47700D01*
X49236Y-47666D01*
X49274Y-47574D01*
X49275Y-47512D01*
X49275Y-47288D01*
X49274Y-47226D01*
X49236Y-47134D01*
X49166Y-47064D01*
X49075Y-47026D01*
X48976Y-47026D01*
X48912Y-47025D01*
X48850Y-47087D01*
X48850Y-47350D01*
X49213Y-47350D01*
X49275Y-47288D01*
X49275Y-47512D01*
X49213Y-47450D01*
X48900Y-47450D01*
X48850Y-47450D01*
X48750Y-47450D01*
X48750Y-47350D01*
X48750Y-47087D01*
X48688Y-47025D01*
X48624Y-47026D01*
X48525Y-47026D01*
X48434Y-47064D01*
X48364Y-47134D01*
X48326Y-47226D01*
X48325Y-47288D01*
X48387Y-47350D01*
X48750Y-47350D01*
X48750Y-47450D01*
X48700Y-47450D01*
X48387Y-47450D01*
X48325Y-47512D01*
X48326Y-47574D01*
X48364Y-47666D01*
X48398Y-47700D01*
X48364Y-47734D01*
X48326Y-47825D01*
X48326Y-47924D01*
X48326Y-48174D01*
X48364Y-48266D01*
X48434Y-48336D01*
X48525Y-48374D01*
X48624Y-48374D01*
X48725Y-48374D01*
X49451Y-49099D01*
X49451Y-49549D01*
X49474Y-49607D01*
X49430Y-49652D01*
X49363Y-49812D01*
X49363Y-49986D01*
X49429Y-50147D01*
X49552Y-50270D01*
X49712Y-50337D01*
X49886Y-50337D01*
X50047Y-50271D01*
X50170Y-50148D01*
X50237Y-49988D01*
X50237Y-49814D01*
X50217Y-49765D01*
X50217Y-49720D01*
X50241Y-49711D01*
X50311Y-49641D01*
X50349Y-49550D01*
X50349Y-50189D01*
X50253Y-50229D01*
X50130Y-50352D01*
X50063Y-50512D01*
X50063Y-50686D01*
X50129Y-50847D01*
X50252Y-50970D01*
X50412Y-51037D01*
X50488Y-51037D01*
X51283Y-51831D01*
X51283Y-52297D01*
X51199Y-52094D01*
X51040Y-51935D01*
X50833Y-51849D01*
X50608Y-51849D01*
X50400Y-51935D01*
X50241Y-52094D01*
X50155Y-52301D01*
X50155Y-52526D01*
X50241Y-52734D01*
X50400Y-52893D01*
X50607Y-52979D01*
X50832Y-52979D01*
X51040Y-52893D01*
X51199Y-52734D01*
X51283Y-52531D01*
X51283Y-52700D01*
X51307Y-52822D01*
X51376Y-52924D01*
X51975Y-53524D01*
X51976Y-53524D01*
X52044Y-53569D01*
X52078Y-53592D01*
X52079Y-53593D01*
X52200Y-53617D01*
X52400Y-53617D01*
X56513Y-53617D01*
X56460Y-53639D01*
X56340Y-53759D01*
X56275Y-53915D01*
X56275Y-54084D01*
X56315Y-54183D01*
X56240Y-54259D01*
X56177Y-54410D01*
X55438Y-54410D01*
X55485Y-54299D01*
X55485Y-54074D01*
X55399Y-53866D01*
X55240Y-53707D01*
X55033Y-53621D01*
X54808Y-53621D01*
X54600Y-53707D01*
X54441Y-53866D01*
X54355Y-54073D01*
X54355Y-54144D01*
X54305Y-54095D01*
X54264Y-54067D01*
X54261Y-54060D01*
X54141Y-53940D01*
X53985Y-53875D01*
X53816Y-53875D01*
X53764Y-53896D01*
X53669Y-53868D01*
X53598Y-53939D01*
X53598Y-53797D01*
X53570Y-53702D01*
X53363Y-53628D01*
X53143Y-53639D01*
X52990Y-53702D01*
X52962Y-53797D01*
X53280Y-54115D01*
X53598Y-53797D01*
X53598Y-53939D01*
X53386Y-54151D01*
X53351Y-54186D01*
X53280Y-54257D01*
X53245Y-54292D01*
X53209Y-54328D01*
X53209Y-54186D01*
X52891Y-53868D01*
X52796Y-53896D01*
X52722Y-54103D01*
X52733Y-54323D01*
X52796Y-54476D01*
X52891Y-54504D01*
X53209Y-54186D01*
X53209Y-54328D01*
X52962Y-54575D01*
X52990Y-54670D01*
X53197Y-54744D01*
X53417Y-54733D01*
X53570Y-54670D01*
X53581Y-54628D01*
X53616Y-54663D01*
X53639Y-54640D01*
X53659Y-54660D01*
X53815Y-54725D01*
X53984Y-54725D01*
X54076Y-54687D01*
X54294Y-54905D01*
X54295Y-54905D01*
X54388Y-54968D01*
X54389Y-54968D01*
X54406Y-54971D01*
X54500Y-54990D01*
X55127Y-54990D01*
X55075Y-55115D01*
X55075Y-55284D01*
X55085Y-55310D01*
X54811Y-55310D01*
X54741Y-55240D01*
X54585Y-55175D01*
X54416Y-55175D01*
X54260Y-55239D01*
X54140Y-55359D01*
X54075Y-55515D01*
X54075Y-55575D01*
X54016Y-55575D01*
X53860Y-55639D01*
X53740Y-55759D01*
X53675Y-55915D01*
X53675Y-56084D01*
X53739Y-56240D01*
X53859Y-56360D01*
X54015Y-56425D01*
X54115Y-56425D01*
X54395Y-56705D01*
X54415Y-56718D01*
X54375Y-56815D01*
X54375Y-56984D01*
X54439Y-57140D01*
X54559Y-57260D01*
X54566Y-57263D01*
X54547Y-57271D01*
X54399Y-57417D01*
X54254Y-57271D01*
X54024Y-57176D01*
X53776Y-57176D01*
X53547Y-57271D01*
X53399Y-57417D01*
X53254Y-57271D01*
X53024Y-57176D01*
X52776Y-57176D01*
X52547Y-57271D01*
X52399Y-57417D01*
X52317Y-57334D01*
X52317Y-55700D01*
X52317Y-55401D01*
X52370Y-55348D01*
X52437Y-55188D01*
X52437Y-55014D01*
X52371Y-54853D01*
X52248Y-54730D01*
X52088Y-54663D01*
X51914Y-54663D01*
X51753Y-54729D01*
X51630Y-54852D01*
X51563Y-55012D01*
X51563Y-55186D01*
X51629Y-55347D01*
X51683Y-55401D01*
X51683Y-55700D01*
X51683Y-57214D01*
X51547Y-57271D01*
X51371Y-57446D01*
X51368Y-57452D01*
X51331Y-57440D01*
X51285Y-57486D01*
X51285Y-54299D01*
X51285Y-54074D01*
X51199Y-53866D01*
X51040Y-53707D01*
X50833Y-53621D01*
X50608Y-53621D01*
X50400Y-53707D01*
X50241Y-53866D01*
X50155Y-54073D01*
X50155Y-54298D01*
X50241Y-54506D01*
X50400Y-54665D01*
X50607Y-54751D01*
X50832Y-54751D01*
X51040Y-54665D01*
X51199Y-54506D01*
X51285Y-54299D01*
X51285Y-57486D01*
X51260Y-57511D01*
X51260Y-57369D01*
X51225Y-57268D01*
X50996Y-57183D01*
X50925Y-57185D01*
X50925Y-56085D01*
X50925Y-55916D01*
X50861Y-55760D01*
X50741Y-55640D01*
X50585Y-55575D01*
X50416Y-55575D01*
X50362Y-55597D01*
X50336Y-55534D01*
X50266Y-55464D01*
X50175Y-55426D01*
X50076Y-55426D01*
X49826Y-55426D01*
X49734Y-55464D01*
X49700Y-55498D01*
X49666Y-55464D01*
X49574Y-55426D01*
X49512Y-55425D01*
X49450Y-55487D01*
X49450Y-55800D01*
X49450Y-55850D01*
X49450Y-55950D01*
X49450Y-56000D01*
X49450Y-56313D01*
X49512Y-56375D01*
X49574Y-56374D01*
X49666Y-56336D01*
X49700Y-56302D01*
X49734Y-56336D01*
X49825Y-56374D01*
X49924Y-56374D01*
X50174Y-56374D01*
X50244Y-56345D01*
X50259Y-56360D01*
X50415Y-56425D01*
X50584Y-56425D01*
X50740Y-56361D01*
X50860Y-56241D01*
X50925Y-56085D01*
X50925Y-57185D01*
X50753Y-57193D01*
X50575Y-57268D01*
X50540Y-57369D01*
X50900Y-57729D01*
X51260Y-57369D01*
X51260Y-57511D01*
X51006Y-57765D01*
X50971Y-57800D01*
X50900Y-57871D01*
X50829Y-57800D01*
X50794Y-57765D01*
X50469Y-57440D01*
X50368Y-57475D01*
X50283Y-57704D01*
X50293Y-57947D01*
X50368Y-58125D01*
X50416Y-58141D01*
X50383Y-58175D01*
X49350Y-58175D01*
X49350Y-56313D01*
X49350Y-55950D01*
X49350Y-55850D01*
X49350Y-55487D01*
X49288Y-55425D01*
X49226Y-55426D01*
X49134Y-55464D01*
X49064Y-55534D01*
X49026Y-55625D01*
X49026Y-55724D01*
X49025Y-55788D01*
X49087Y-55850D01*
X49350Y-55850D01*
X49350Y-55950D01*
X49087Y-55950D01*
X49025Y-56012D01*
X49026Y-56076D01*
X49026Y-56175D01*
X49064Y-56266D01*
X49134Y-56336D01*
X49226Y-56374D01*
X49288Y-56375D01*
X49350Y-56313D01*
X49350Y-58175D01*
X48075Y-58175D01*
X48075Y-56250D01*
X48075Y-45489D01*
X48105Y-45562D01*
X48236Y-45694D01*
X48407Y-45765D01*
X48592Y-45765D01*
X48763Y-45694D01*
X48895Y-45563D01*
X48940Y-45453D01*
X48941Y-45545D01*
X48979Y-45637D01*
X49049Y-45707D01*
X49140Y-45745D01*
X49239Y-45745D01*
X49353Y-45746D01*
X49415Y-45684D01*
X49415Y-45281D01*
X49415Y-45231D01*
X49415Y-45131D01*
X49515Y-45131D01*
X49565Y-45131D01*
X49928Y-45131D01*
X49990Y-45069D01*
X49989Y-44817D01*
X49975Y-44784D01*
X50029Y-44731D01*
X50067Y-44639D01*
X50068Y-44613D01*
X50006Y-44551D01*
X49944Y-44551D01*
X49959Y-44545D01*
X50029Y-44475D01*
X50046Y-44432D01*
X50068Y-44411D01*
X50067Y-44385D01*
X50066Y-44384D01*
X50067Y-44384D01*
X50067Y-44285D01*
X50067Y-44129D01*
X50066Y-44128D01*
X50067Y-44128D01*
X50067Y-44029D01*
X50067Y-43873D01*
X50066Y-43872D01*
X50067Y-43872D01*
X50067Y-43804D01*
X50183Y-43781D01*
X50184Y-43781D01*
X50286Y-43712D01*
X50381Y-43617D01*
X51399Y-43617D01*
X51452Y-43670D01*
X51612Y-43737D01*
X51786Y-43737D01*
X51947Y-43671D01*
X52070Y-43548D01*
X52137Y-43388D01*
X52137Y-43311D01*
X52242Y-43205D01*
X52287Y-43250D01*
X52500Y-43250D01*
X52550Y-43250D01*
X52650Y-43250D01*
X52650Y-43350D01*
X52650Y-43400D01*
X52650Y-43713D01*
X52709Y-43772D01*
X52630Y-43852D01*
X52563Y-44012D01*
X52563Y-44186D01*
X52629Y-44347D01*
X52752Y-44470D01*
X52912Y-44537D01*
X52989Y-44537D01*
X54059Y-45607D01*
X54161Y-45675D01*
X54162Y-45676D01*
X54283Y-45700D01*
X55304Y-45700D01*
X55304Y-45798D01*
X55310Y-45798D01*
X55304Y-45804D01*
X55305Y-45835D01*
X55313Y-45855D01*
X55305Y-45875D01*
X55305Y-45974D01*
X55305Y-46150D01*
X55313Y-46170D01*
X55305Y-46190D01*
X55305Y-46289D01*
X55305Y-46465D01*
X55313Y-46485D01*
X55305Y-46505D01*
X55305Y-46604D01*
X55305Y-46780D01*
X55313Y-46799D01*
X55305Y-46819D01*
X55305Y-46918D01*
X55305Y-47094D01*
X55313Y-47114D01*
X55305Y-47134D01*
X55305Y-47233D01*
X55305Y-47297D01*
X54013Y-47297D01*
X53902Y-47319D01*
X53808Y-47382D01*
X53515Y-47675D01*
X53416Y-47675D01*
X53260Y-47739D01*
X53244Y-47754D01*
X53236Y-47734D01*
X53202Y-47700D01*
X53236Y-47666D01*
X53274Y-47574D01*
X53275Y-47512D01*
X53275Y-47288D01*
X53274Y-47226D01*
X53236Y-47134D01*
X53166Y-47064D01*
X53075Y-47026D01*
X52976Y-47026D01*
X52912Y-47025D01*
X52850Y-47087D01*
X52850Y-47350D01*
X53213Y-47350D01*
X53275Y-47288D01*
X53275Y-47512D01*
X53213Y-47450D01*
X52900Y-47450D01*
X52850Y-47450D01*
X52750Y-47450D01*
X52750Y-47350D01*
X52750Y-47087D01*
X52688Y-47025D01*
X52624Y-47026D01*
X52550Y-47026D01*
X52550Y-43713D01*
X52550Y-43350D01*
X52287Y-43350D01*
X52225Y-43412D01*
X52226Y-43476D01*
X52226Y-43575D01*
X52264Y-43666D01*
X52334Y-43736D01*
X52426Y-43774D01*
X52488Y-43775D01*
X52550Y-43713D01*
X52550Y-47026D01*
X52525Y-47026D01*
X52434Y-47064D01*
X52364Y-47134D01*
X52326Y-47226D01*
X52325Y-47288D01*
X52387Y-47350D01*
X52750Y-47350D01*
X52750Y-47450D01*
X52700Y-47450D01*
X52387Y-47450D01*
X52325Y-47512D01*
X52326Y-47574D01*
X52364Y-47666D01*
X52398Y-47700D01*
X52364Y-47734D01*
X52326Y-47825D01*
X52326Y-47924D01*
X52326Y-48025D01*
X52218Y-48133D01*
X52237Y-48088D01*
X52237Y-47914D01*
X52171Y-47753D01*
X52048Y-47630D01*
X51888Y-47563D01*
X51770Y-47563D01*
X51770Y-46612D01*
X51770Y-46388D01*
X51769Y-46149D01*
X51769Y-46050D01*
X51731Y-45959D01*
X51661Y-45889D01*
X51569Y-45851D01*
X50912Y-45850D01*
X50850Y-45912D01*
X50850Y-46450D01*
X51708Y-46450D01*
X51770Y-46388D01*
X51770Y-46612D01*
X51708Y-46550D01*
X50850Y-46550D01*
X50850Y-47088D01*
X50912Y-47150D01*
X51569Y-47149D01*
X51661Y-47111D01*
X51731Y-47041D01*
X51769Y-46950D01*
X51769Y-46851D01*
X51770Y-46612D01*
X51770Y-47563D01*
X51714Y-47563D01*
X51553Y-47629D01*
X51430Y-47752D01*
X51363Y-47912D01*
X51363Y-48086D01*
X51383Y-48134D01*
X51383Y-48479D01*
X51359Y-48489D01*
X51289Y-48559D01*
X51251Y-48650D01*
X51251Y-48749D01*
X51251Y-49549D01*
X51289Y-49641D01*
X51359Y-49711D01*
X51415Y-49734D01*
X51476Y-49824D01*
X51563Y-49911D01*
X51563Y-49986D01*
X51629Y-50147D01*
X51752Y-50270D01*
X51912Y-50337D01*
X52086Y-50337D01*
X52247Y-50271D01*
X52370Y-50148D01*
X52437Y-49988D01*
X52437Y-49814D01*
X52371Y-49653D01*
X52248Y-49530D01*
X52149Y-49488D01*
X52149Y-49451D01*
X52149Y-49099D01*
X52750Y-48498D01*
X53376Y-49124D01*
X53478Y-49192D01*
X53479Y-49193D01*
X53600Y-49217D01*
X54369Y-49217D01*
X54576Y-49424D01*
X55076Y-49924D01*
X55178Y-49993D01*
X55179Y-49993D01*
X55300Y-50017D01*
X55481Y-50017D01*
X55464Y-50034D01*
X55426Y-50126D01*
X55425Y-50188D01*
X55487Y-50250D01*
X55800Y-50250D01*
X55850Y-50250D01*
X55950Y-50250D01*
X55950Y-50350D01*
X55950Y-50400D01*
X55950Y-50613D01*
X56012Y-50675D01*
X56076Y-50674D01*
X56175Y-50674D01*
X56266Y-50636D01*
X56336Y-50566D01*
X56374Y-50474D01*
X56375Y-50412D01*
X56363Y-50400D01*
X56375Y-50400D01*
X56375Y-50384D01*
X56400Y-50395D01*
X56499Y-50395D01*
X56675Y-50395D01*
X56695Y-50386D01*
X56715Y-50395D01*
X56814Y-50395D01*
X56975Y-50395D01*
X56975Y-50484D01*
X57039Y-50640D01*
X57142Y-50743D01*
X56776Y-51110D01*
X55850Y-51110D01*
X55850Y-50613D01*
X55850Y-50350D01*
X55487Y-50350D01*
X55425Y-50412D01*
X55426Y-50474D01*
X55464Y-50566D01*
X55534Y-50636D01*
X55625Y-50674D01*
X55724Y-50674D01*
X55788Y-50675D01*
X55850Y-50613D01*
X55850Y-51110D01*
X54800Y-51110D01*
X54689Y-51132D01*
X54595Y-51195D01*
X54296Y-51493D01*
X54294Y-51495D01*
X53727Y-52062D01*
X53600Y-51935D01*
X53393Y-51849D01*
X53168Y-51849D01*
X52960Y-51935D01*
X52801Y-52094D01*
X52715Y-52301D01*
X52715Y-52526D01*
X52801Y-52734D01*
X52960Y-52893D01*
X53167Y-52979D01*
X53392Y-52979D01*
X53600Y-52893D01*
X53759Y-52734D01*
X53771Y-52704D01*
X53786Y-52704D01*
X53897Y-52682D01*
X53991Y-52619D01*
X54387Y-52223D01*
X54355Y-52301D01*
X54355Y-52526D01*
X54441Y-52734D01*
X54600Y-52893D01*
X54807Y-52979D01*
X55032Y-52979D01*
X55240Y-52893D01*
X55399Y-52734D01*
X55485Y-52527D01*
X55485Y-52302D01*
X55399Y-52094D01*
X55240Y-51935D01*
X55033Y-51849D01*
X54808Y-51849D01*
X54727Y-51882D01*
X54920Y-51690D01*
X56896Y-51690D01*
X57007Y-51668D01*
X57101Y-51605D01*
X57190Y-51516D01*
X57190Y-51922D01*
X57160Y-51935D01*
X57001Y-52094D01*
X56915Y-52301D01*
X56915Y-52526D01*
X57001Y-52734D01*
X57160Y-52893D01*
X57367Y-52979D01*
X57592Y-52979D01*
X57800Y-52893D01*
X57959Y-52734D01*
X58045Y-52527D01*
X58045Y-52302D01*
X57959Y-52094D01*
X57800Y-51935D01*
X57770Y-51922D01*
X57770Y-51564D01*
X57915Y-51625D01*
X58084Y-51625D01*
X58240Y-51561D01*
X58311Y-51490D01*
X58340Y-51490D01*
X58326Y-51525D01*
X58326Y-51624D01*
X58325Y-51688D01*
X58387Y-51750D01*
X58600Y-51750D01*
X58650Y-51750D01*
X58750Y-51750D01*
X58750Y-51850D01*
X58750Y-51900D01*
X58750Y-52213D01*
X58812Y-52275D01*
X58874Y-52274D01*
X58966Y-52236D01*
X59000Y-52202D01*
X59034Y-52236D01*
X59125Y-52274D01*
X59224Y-52274D01*
X59474Y-52274D01*
X59566Y-52236D01*
X59636Y-52166D01*
X59674Y-52075D01*
X59674Y-51976D01*
X59674Y-51526D01*
X59636Y-51434D01*
X59631Y-51429D01*
X59663Y-51398D01*
X59701Y-51307D01*
X59701Y-51208D01*
X59701Y-51011D01*
X62159Y-53469D01*
X62151Y-53491D01*
X62151Y-53709D01*
X62235Y-53911D01*
X62389Y-54065D01*
X62473Y-54100D01*
X62389Y-54135D01*
X62235Y-54289D01*
X62226Y-54310D01*
X61359Y-54310D01*
X61374Y-54275D01*
X61374Y-54176D01*
X61374Y-53926D01*
X61336Y-53834D01*
X61266Y-53764D01*
X61175Y-53726D01*
X61076Y-53726D01*
X60626Y-53726D01*
X60534Y-53764D01*
X60494Y-53803D01*
X60493Y-53804D01*
X60478Y-53807D01*
X60376Y-53876D01*
X60076Y-54176D01*
X60007Y-54278D01*
X59983Y-54400D01*
X59983Y-55100D01*
X60007Y-55222D01*
X60076Y-55324D01*
X60176Y-55424D01*
X60278Y-55492D01*
X60279Y-55493D01*
X60400Y-55517D01*
X62300Y-55517D01*
X64200Y-55517D01*
X64321Y-55493D01*
X64424Y-55424D01*
X64493Y-55321D01*
X64517Y-55200D01*
X64517Y-53200D01*
X64493Y-53079D01*
X64493Y-53078D01*
X64424Y-52976D01*
X64221Y-52773D01*
X64249Y-52709D01*
X64249Y-52499D01*
X64331Y-52417D01*
X64900Y-52417D01*
X66115Y-52417D01*
X66134Y-52436D01*
X66225Y-52474D01*
X66324Y-52474D01*
X66774Y-52474D01*
X66866Y-52436D01*
X66936Y-52366D01*
X66974Y-52275D01*
X66974Y-52176D01*
X66974Y-51926D01*
X66936Y-51834D01*
X66902Y-51800D01*
X66912Y-51790D01*
X67076Y-51790D01*
X67109Y-51869D01*
X67073Y-51958D01*
X67073Y-52057D01*
X67073Y-52451D01*
X67111Y-52543D01*
X67181Y-52613D01*
X67272Y-52651D01*
X67371Y-52651D01*
X67961Y-52651D01*
X68053Y-52613D01*
X68123Y-52543D01*
X68161Y-52452D01*
X68161Y-52353D01*
X68161Y-51959D01*
X68124Y-51870D01*
X68161Y-51782D01*
X68161Y-51683D01*
X68161Y-51289D01*
X68123Y-51197D01*
X68053Y-51127D01*
X67962Y-51089D01*
X67863Y-51089D01*
X67567Y-51089D01*
X67567Y-50964D01*
X67567Y-50629D01*
X67567Y-50529D01*
X67567Y-50194D01*
X67505Y-50132D01*
X67273Y-50133D01*
X67181Y-50171D01*
X67111Y-50241D01*
X67073Y-50332D01*
X67073Y-50431D01*
X67072Y-50467D01*
X67134Y-50529D01*
X67567Y-50529D01*
X67567Y-50629D01*
X67134Y-50629D01*
X67072Y-50691D01*
X67073Y-50727D01*
X67073Y-50826D01*
X67111Y-50917D01*
X67181Y-50987D01*
X67273Y-51025D01*
X67505Y-51026D01*
X67567Y-50964D01*
X67567Y-51089D01*
X67273Y-51089D01*
X67181Y-51127D01*
X67111Y-51197D01*
X67105Y-51210D01*
X66912Y-51210D01*
X66866Y-51164D01*
X66775Y-51126D01*
X66676Y-51126D01*
X66336Y-51126D01*
X66305Y-51095D01*
X66211Y-51032D01*
X66100Y-51010D01*
X65600Y-51010D01*
X65704Y-50906D01*
X65704Y-50905D01*
X65705Y-50905D01*
X66536Y-50074D01*
X66574Y-50074D01*
X66666Y-50036D01*
X66736Y-49966D01*
X66761Y-49904D01*
X67091Y-49904D01*
X67111Y-49952D01*
X67181Y-50022D01*
X67272Y-50060D01*
X67371Y-50060D01*
X67961Y-50060D01*
X68053Y-50022D01*
X68123Y-49952D01*
X68161Y-49861D01*
X68161Y-49762D01*
X68161Y-49368D01*
X68123Y-49276D01*
X68053Y-49206D01*
X67962Y-49168D01*
X67863Y-49168D01*
X67273Y-49168D01*
X67181Y-49206D01*
X67111Y-49276D01*
X67090Y-49324D01*
X66773Y-49324D01*
X66736Y-49234D01*
X66666Y-49164D01*
X66575Y-49126D01*
X66476Y-49126D01*
X66226Y-49126D01*
X66219Y-49128D01*
X66374Y-48974D01*
X66674Y-48974D01*
X66766Y-48936D01*
X66785Y-48917D01*
X67089Y-48917D01*
X67111Y-48968D01*
X67181Y-49038D01*
X67272Y-49076D01*
X67371Y-49076D01*
X67961Y-49076D01*
X68053Y-49038D01*
X68123Y-48968D01*
X68161Y-48877D01*
X68161Y-48778D01*
X68161Y-48384D01*
X68128Y-48305D01*
X68161Y-48227D01*
X68161Y-48128D01*
X68162Y-48092D01*
X68162Y-47868D01*
X68161Y-47832D01*
X68161Y-47733D01*
X68124Y-47645D01*
X68161Y-47558D01*
X68161Y-47459D01*
X68162Y-47423D01*
X68100Y-47361D01*
X67667Y-47361D01*
X67667Y-47595D01*
X67667Y-47696D01*
X67667Y-47930D01*
X68100Y-47930D01*
X68162Y-47868D01*
X68162Y-48092D01*
X68100Y-48030D01*
X67717Y-48030D01*
X67667Y-48030D01*
X67567Y-48030D01*
X67567Y-47930D01*
X67567Y-47696D01*
X67567Y-47595D01*
X67567Y-47361D01*
X67134Y-47361D01*
X67072Y-47423D01*
X67073Y-47459D01*
X67073Y-47558D01*
X67109Y-47645D01*
X67073Y-47733D01*
X67073Y-47832D01*
X67072Y-47868D01*
X67134Y-47930D01*
X67567Y-47930D01*
X67567Y-48030D01*
X67517Y-48030D01*
X67134Y-48030D01*
X67072Y-48092D01*
X67073Y-48128D01*
X67073Y-48227D01*
X67096Y-48283D01*
X66819Y-48283D01*
X66836Y-48266D01*
X66874Y-48174D01*
X66875Y-48112D01*
X66875Y-47888D01*
X66874Y-47826D01*
X66836Y-47734D01*
X66766Y-47664D01*
X66675Y-47626D01*
X66576Y-47626D01*
X66512Y-47625D01*
X66450Y-47687D01*
X66450Y-47950D01*
X66813Y-47950D01*
X66875Y-47888D01*
X66875Y-48112D01*
X66813Y-48050D01*
X66500Y-48050D01*
X66450Y-48050D01*
X66350Y-48050D01*
X66300Y-48050D01*
X65987Y-48050D01*
X65925Y-48112D01*
X65926Y-48174D01*
X65964Y-48266D01*
X65981Y-48283D01*
X65901Y-48283D01*
X65848Y-48230D01*
X65688Y-48163D01*
X65514Y-48163D01*
X65353Y-48229D01*
X65230Y-48352D01*
X65163Y-48512D01*
X65163Y-48686D01*
X65229Y-48847D01*
X65352Y-48970D01*
X65496Y-49030D01*
X65483Y-49100D01*
X65483Y-49215D01*
X65464Y-49234D01*
X65426Y-49325D01*
X65426Y-49424D01*
X65426Y-49733D01*
X65285Y-49675D01*
X65116Y-49675D01*
X64960Y-49739D01*
X64840Y-49859D01*
X64775Y-50015D01*
X64775Y-50114D01*
X64679Y-50210D01*
X64500Y-50210D01*
X64406Y-50228D01*
X64388Y-50232D01*
X64294Y-50295D01*
X64114Y-50475D01*
X64016Y-50475D01*
X63860Y-50539D01*
X63740Y-50659D01*
X63675Y-50815D01*
X63675Y-50984D01*
X63739Y-51140D01*
X63844Y-51245D01*
X63039Y-52051D01*
X62951Y-52051D01*
X62561Y-52051D01*
X62377Y-51867D01*
X62515Y-51925D01*
X62684Y-51925D01*
X62840Y-51861D01*
X62960Y-51741D01*
X63025Y-51585D01*
X63025Y-51416D01*
X62961Y-51260D01*
X62926Y-51225D01*
X63084Y-51225D01*
X63240Y-51161D01*
X63360Y-51041D01*
X63425Y-50885D01*
X63425Y-50785D01*
X63685Y-50525D01*
X63784Y-50525D01*
X63940Y-50461D01*
X64060Y-50341D01*
X64125Y-50185D01*
X64125Y-50016D01*
X64084Y-49917D01*
X64100Y-49902D01*
X64134Y-49936D01*
X64225Y-49974D01*
X64324Y-49974D01*
X64574Y-49974D01*
X64666Y-49936D01*
X64736Y-49866D01*
X64774Y-49775D01*
X64774Y-49676D01*
X64774Y-49226D01*
X64736Y-49134D01*
X64690Y-49088D01*
X64690Y-48975D01*
X64689Y-48974D01*
X64668Y-48864D01*
X64667Y-48863D01*
X64646Y-48832D01*
X64605Y-48770D01*
X64605Y-48769D01*
X64519Y-48683D01*
X64519Y-47284D01*
X64457Y-47222D01*
X64103Y-47222D01*
X64103Y-47734D01*
X64165Y-47796D01*
X64220Y-47795D01*
X64319Y-47795D01*
X64410Y-47757D01*
X64480Y-47687D01*
X64518Y-47595D01*
X64519Y-47284D01*
X64519Y-48683D01*
X64518Y-48682D01*
X64518Y-48205D01*
X64480Y-48113D01*
X64410Y-48043D01*
X64319Y-48005D01*
X64220Y-48005D01*
X63840Y-48005D01*
X63548Y-47713D01*
X63574Y-47687D01*
X63600Y-47624D01*
X63626Y-47687D01*
X63696Y-47757D01*
X63787Y-47795D01*
X63886Y-47795D01*
X63941Y-47796D01*
X64003Y-47734D01*
X64003Y-47272D01*
X64003Y-47222D01*
X64003Y-47122D01*
X64103Y-47122D01*
X64153Y-47122D01*
X64457Y-47122D01*
X64519Y-47060D01*
X64518Y-46774D01*
X64574Y-46774D01*
X64666Y-46736D01*
X64736Y-46666D01*
X64774Y-46575D01*
X64774Y-46476D01*
X64775Y-46412D01*
X64713Y-46350D01*
X64500Y-46350D01*
X64450Y-46350D01*
X64350Y-46350D01*
X64350Y-46250D01*
X64450Y-46250D01*
X64500Y-46250D01*
X64713Y-46250D01*
X64775Y-46188D01*
X64774Y-46124D01*
X64774Y-46025D01*
X64745Y-45955D01*
X64760Y-45941D01*
X64825Y-45785D01*
X64825Y-45685D01*
X65205Y-45305D01*
X65509Y-45000D01*
X65463Y-45112D01*
X65463Y-45286D01*
X65529Y-45447D01*
X65583Y-45501D01*
X65583Y-46315D01*
X65564Y-46334D01*
X65526Y-46425D01*
X65526Y-46524D01*
X65526Y-46974D01*
X65564Y-47066D01*
X65634Y-47136D01*
X65654Y-47144D01*
X65640Y-47159D01*
X65575Y-47315D01*
X65575Y-47484D01*
X65639Y-47640D01*
X65759Y-47760D01*
X65915Y-47825D01*
X65926Y-47825D01*
X65926Y-47826D01*
X65925Y-47888D01*
X65987Y-47950D01*
X66350Y-47950D01*
X66350Y-47687D01*
X66332Y-47669D01*
X66360Y-47641D01*
X66425Y-47485D01*
X66425Y-47385D01*
X66636Y-47174D01*
X66674Y-47174D01*
X66766Y-47136D01*
X66836Y-47066D01*
X66874Y-46975D01*
X66874Y-46932D01*
X67091Y-46932D01*
X67109Y-46976D01*
X67073Y-47064D01*
X67073Y-47163D01*
X67072Y-47199D01*
X67134Y-47261D01*
X67517Y-47261D01*
X67567Y-47261D01*
X67667Y-47261D01*
X67717Y-47261D01*
X68100Y-47261D01*
X68162Y-47199D01*
X68161Y-47163D01*
X68161Y-47064D01*
X68124Y-46976D01*
X68161Y-46889D01*
X68161Y-46790D01*
X68161Y-46396D01*
X68123Y-46304D01*
X68053Y-46234D01*
X67962Y-46196D01*
X67863Y-46196D01*
X67273Y-46196D01*
X67181Y-46234D01*
X67111Y-46304D01*
X67090Y-46352D01*
X66843Y-46352D01*
X66836Y-46334D01*
X66766Y-46264D01*
X66675Y-46226D01*
X66576Y-46226D01*
X66326Y-46226D01*
X66234Y-46264D01*
X66217Y-46281D01*
X66217Y-45986D01*
X66239Y-46040D01*
X66359Y-46160D01*
X66515Y-46225D01*
X66684Y-46225D01*
X66840Y-46161D01*
X66960Y-46041D01*
X66999Y-45947D01*
X67091Y-45947D01*
X67111Y-45995D01*
X67181Y-46065D01*
X67272Y-46103D01*
X67371Y-46103D01*
X67961Y-46103D01*
X68053Y-46065D01*
X68123Y-45995D01*
X68161Y-45904D01*
X68161Y-45805D01*
X68161Y-45411D01*
X68123Y-45319D01*
X68053Y-45249D01*
X67962Y-45211D01*
X67863Y-45211D01*
X67273Y-45211D01*
X67181Y-45249D01*
X67111Y-45319D01*
X67090Y-45367D01*
X66743Y-45367D01*
X66690Y-45377D01*
X66685Y-45375D01*
X66516Y-45375D01*
X66360Y-45439D01*
X66240Y-45559D01*
X66217Y-45614D01*
X66217Y-45501D01*
X66270Y-45448D01*
X66337Y-45288D01*
X66337Y-45211D01*
X67073Y-44475D01*
X67073Y-44525D01*
X67073Y-44919D01*
X67111Y-45011D01*
X67181Y-45081D01*
X67272Y-45119D01*
X67371Y-45119D01*
X67961Y-45119D01*
X68053Y-45081D01*
X68123Y-45011D01*
X68161Y-44920D01*
X68161Y-44821D01*
X68161Y-44427D01*
X68123Y-44335D01*
X68053Y-44265D01*
X67962Y-44227D01*
X67863Y-44227D01*
X67321Y-44227D01*
X69931Y-41617D01*
X72500Y-41617D01*
X72621Y-41593D01*
X72622Y-41593D01*
X72724Y-41524D01*
X73374Y-40874D01*
X73574Y-40874D01*
X73666Y-40836D01*
X73736Y-40766D01*
X73774Y-40675D01*
X73774Y-40576D01*
X73774Y-40126D01*
X73736Y-40034D01*
X73666Y-39964D01*
X73575Y-39926D01*
X73476Y-39926D01*
X73226Y-39926D01*
X73161Y-39952D01*
X73161Y-37206D01*
X73161Y-36281D01*
X72433Y-36281D01*
X72371Y-36343D01*
X72372Y-36969D01*
X72372Y-37068D01*
X72410Y-37159D01*
X72480Y-37229D01*
X72572Y-37267D01*
X73099Y-37268D01*
X73161Y-37206D01*
X73161Y-39952D01*
X73134Y-39964D01*
X73100Y-39998D01*
X73066Y-39964D01*
X72975Y-39926D01*
X72876Y-39926D01*
X72626Y-39926D01*
X72534Y-39964D01*
X72464Y-40034D01*
X72432Y-40110D01*
X71700Y-40110D01*
X71589Y-40132D01*
X71495Y-40195D01*
X70990Y-40699D01*
X70991Y-40477D01*
X70991Y-40253D01*
X70990Y-40021D01*
X70990Y-39922D01*
X70952Y-39831D01*
X70882Y-39761D01*
X70790Y-39723D01*
X70666Y-39722D01*
X70604Y-39784D01*
X70604Y-40315D01*
X70929Y-40315D01*
X70991Y-40253D01*
X70991Y-40477D01*
X70929Y-40415D01*
X70654Y-40415D01*
X70604Y-40415D01*
X70504Y-40415D01*
X70504Y-40315D01*
X70504Y-40265D01*
X70504Y-39784D01*
X70442Y-39722D01*
X70318Y-39723D01*
X70258Y-39747D01*
X70200Y-39723D01*
X70101Y-39723D01*
X69727Y-39723D01*
X69667Y-39747D01*
X69609Y-39723D01*
X69510Y-39723D01*
X69136Y-39723D01*
X69077Y-39747D01*
X69019Y-39723D01*
X68920Y-39723D01*
X68546Y-39723D01*
X68486Y-39747D01*
X68428Y-39723D01*
X68329Y-39723D01*
X67955Y-39723D01*
X67896Y-39747D01*
X67838Y-39723D01*
X67739Y-39723D01*
X67365Y-39723D01*
X67305Y-39747D01*
X67247Y-39723D01*
X67148Y-39723D01*
X66774Y-39723D01*
X66715Y-39747D01*
X66657Y-39723D01*
X66558Y-39723D01*
X66184Y-39723D01*
X66124Y-39747D01*
X66066Y-39723D01*
X65967Y-39723D01*
X65593Y-39723D01*
X65534Y-39747D01*
X65476Y-39723D01*
X65377Y-39723D01*
X65003Y-39723D01*
X64943Y-39747D01*
X64885Y-39723D01*
X64786Y-39723D01*
X64412Y-39723D01*
X64352Y-39747D01*
X64294Y-39723D01*
X64195Y-39723D01*
X63821Y-39723D01*
X63762Y-39747D01*
X63704Y-39723D01*
X63605Y-39723D01*
X63231Y-39723D01*
X63171Y-39747D01*
X63113Y-39723D01*
X63014Y-39723D01*
X62640Y-39723D01*
X62581Y-39747D01*
X62523Y-39723D01*
X62424Y-39723D01*
X62050Y-39723D01*
X61990Y-39747D01*
X61932Y-39723D01*
X61833Y-39723D01*
X61459Y-39723D01*
X61400Y-39747D01*
X61342Y-39723D01*
X61243Y-39723D01*
X60869Y-39723D01*
X60809Y-39747D01*
X60751Y-39723D01*
X60652Y-39723D01*
X60278Y-39723D01*
X60219Y-39747D01*
X60161Y-39723D01*
X60062Y-39723D01*
X59688Y-39723D01*
X59628Y-39747D01*
X59570Y-39723D01*
X59471Y-39723D01*
X59097Y-39723D01*
X59038Y-39747D01*
X58980Y-39723D01*
X58881Y-39723D01*
X58507Y-39723D01*
X58447Y-39747D01*
X58389Y-39723D01*
X58290Y-39723D01*
X57916Y-39723D01*
X57856Y-39747D01*
X57798Y-39723D01*
X57699Y-39723D01*
X57325Y-39723D01*
X57266Y-39747D01*
X57208Y-39723D01*
X57109Y-39723D01*
X56735Y-39723D01*
X56675Y-39747D01*
X56617Y-39723D01*
X56518Y-39723D01*
X56144Y-39723D01*
X56085Y-39747D01*
X56027Y-39723D01*
X55928Y-39723D01*
X55554Y-39723D01*
X55494Y-39747D01*
X55436Y-39723D01*
X55337Y-39723D01*
X54963Y-39723D01*
X54904Y-39747D01*
X54846Y-39723D01*
X54747Y-39723D01*
X54373Y-39723D01*
X54313Y-39747D01*
X54255Y-39723D01*
X54156Y-39723D01*
X53782Y-39723D01*
X53723Y-39747D01*
X53665Y-39723D01*
X53566Y-39723D01*
X53192Y-39723D01*
X53132Y-39747D01*
X53074Y-39723D01*
X52975Y-39723D01*
X52601Y-39723D01*
X52541Y-39747D01*
X52483Y-39723D01*
X52384Y-39723D01*
X52010Y-39723D01*
X51918Y-39761D01*
X51848Y-39831D01*
X51810Y-39922D01*
X51810Y-40021D01*
X51810Y-40807D01*
X51848Y-40899D01*
X51918Y-40969D01*
X51929Y-40973D01*
X51929Y-41153D01*
X51830Y-41252D01*
X51763Y-41412D01*
X51763Y-41586D01*
X51829Y-41747D01*
X51952Y-41870D01*
X52112Y-41937D01*
X52286Y-41937D01*
X52447Y-41871D01*
X52570Y-41748D01*
X52637Y-41588D01*
X52637Y-41414D01*
X52571Y-41253D01*
X52563Y-41245D01*
X52563Y-40991D01*
X52600Y-41007D01*
X52699Y-41007D01*
X53073Y-41007D01*
X53132Y-40982D01*
X53138Y-40984D01*
X53138Y-41628D01*
X53160Y-41739D01*
X53223Y-41833D01*
X53310Y-41920D01*
X53310Y-42094D01*
X53303Y-42094D01*
X52989Y-42094D01*
X52900Y-42130D01*
X52812Y-42094D01*
X52713Y-42094D01*
X52399Y-42094D01*
X52307Y-42132D01*
X52237Y-42202D01*
X52199Y-42293D01*
X52199Y-42353D01*
X51689Y-42863D01*
X51614Y-42863D01*
X51453Y-42929D01*
X51399Y-42983D01*
X50429Y-42983D01*
X50429Y-36343D01*
X50367Y-36281D01*
X49639Y-36281D01*
X49639Y-37206D01*
X49701Y-37268D01*
X50228Y-37267D01*
X50320Y-37229D01*
X50390Y-37159D01*
X50428Y-37068D01*
X50428Y-36969D01*
X50429Y-36343D01*
X50429Y-42983D01*
X50250Y-42983D01*
X50129Y-43007D01*
X50094Y-43030D01*
X50025Y-43076D01*
X49989Y-43111D01*
X49990Y-42931D01*
X49990Y-42707D01*
X49989Y-42455D01*
X49951Y-42363D01*
X49881Y-42293D01*
X49790Y-42255D01*
X49691Y-42255D01*
X49577Y-42254D01*
X49539Y-42292D01*
X49539Y-37206D01*
X49539Y-36281D01*
X48811Y-36281D01*
X48749Y-36343D01*
X48750Y-36969D01*
X48750Y-37068D01*
X48788Y-37159D01*
X48858Y-37229D01*
X48950Y-37267D01*
X49477Y-37268D01*
X49539Y-37206D01*
X49539Y-42292D01*
X49515Y-42316D01*
X49515Y-42769D01*
X49928Y-42769D01*
X49990Y-42707D01*
X49990Y-42931D01*
X49928Y-42869D01*
X49565Y-42869D01*
X49515Y-42869D01*
X49415Y-42869D01*
X49415Y-42769D01*
X49415Y-42719D01*
X49415Y-42316D01*
X49353Y-42254D01*
X49239Y-42255D01*
X49140Y-42255D01*
X49049Y-42293D01*
X48979Y-42363D01*
X48941Y-42455D01*
X48940Y-42547D01*
X48895Y-42438D01*
X48764Y-42306D01*
X48593Y-42235D01*
X48408Y-42235D01*
X48237Y-42306D01*
X48105Y-42437D01*
X48075Y-42509D01*
X48075Y-35325D01*
X48250Y-35325D01*
X48778Y-35325D01*
X48750Y-35394D01*
X48750Y-35493D01*
X48749Y-36119D01*
X48811Y-36181D01*
X49489Y-36181D01*
X49539Y-36181D01*
X49639Y-36181D01*
X49689Y-36181D01*
X50367Y-36181D01*
X50429Y-36119D01*
X50428Y-35493D01*
X50428Y-35394D01*
X50399Y-35325D01*
X72400Y-35325D01*
X72372Y-35394D01*
X72372Y-35493D01*
X72371Y-36119D01*
X72433Y-36181D01*
X73111Y-36181D01*
X73161Y-36181D01*
X73261Y-36181D01*
X73311Y-36181D01*
X73989Y-36181D01*
X74051Y-36119D01*
X74050Y-35493D01*
X74050Y-35394D01*
X74021Y-35325D01*
X74175Y-35325D01*
X74175Y-38750D01*
X74200Y-38874D01*
X74270Y-38980D01*
X77425Y-42135D01*
X77425Y-43082D01*
X77288Y-43026D01*
X77079Y-43026D01*
X76886Y-43106D01*
X76738Y-43253D01*
X76658Y-43446D01*
X76658Y-43655D01*
X76738Y-43848D01*
X76885Y-43996D01*
X77078Y-44076D01*
X77287Y-44076D01*
X77425Y-44018D01*
X77425Y-52590D01*
X77288Y-52534D01*
X77079Y-52534D01*
X76886Y-52614D01*
X76738Y-52761D01*
X76658Y-52954D01*
X76658Y-53163D01*
X76666Y-53183D01*
X76527Y-53183D01*
X76527Y-42758D01*
X76527Y-42534D01*
X76526Y-42459D01*
X76526Y-42360D01*
X76488Y-42269D01*
X76418Y-42199D01*
X76326Y-42161D01*
X75996Y-42160D01*
X75934Y-42222D01*
X75934Y-42596D01*
X76465Y-42596D01*
X76527Y-42534D01*
X76527Y-42758D01*
X76465Y-42696D01*
X75934Y-42696D01*
X75934Y-43070D01*
X75996Y-43132D01*
X76326Y-43131D01*
X76418Y-43093D01*
X76488Y-43023D01*
X76526Y-42932D01*
X76526Y-42833D01*
X76527Y-42758D01*
X76527Y-53183D01*
X76469Y-53183D01*
X76407Y-53245D01*
X76407Y-53619D01*
X76938Y-53619D01*
X77000Y-53557D01*
X76999Y-53551D01*
X77078Y-53584D01*
X77287Y-53584D01*
X77425Y-53526D01*
X77425Y-54365D01*
M02*
