M48
INCH,LZ
T1C0.025
T2C0.027
T3C0.039
T4C0.040
T5C0.040
T6C0.051
%
G90
G05
T1
X0505Y-056
X0535Y-0481
X0538Y-0485
X0539Y-0543
X054Y-0437
X0541Y-056
X0543Y-0485
X0544Y-0447
X0545Y-0556
X0546Y-0439
X0548Y-0569
X0555Y-0552
X0563Y-0565
X0566Y-0545
X0567Y-054
X0569Y-0492
X0571Y-0481
X0572Y-0488
X0574Y-0504
X0577Y-0465
X058Y-0512
X0584Y-0465
X0589Y-0465
X0589Y-0547
X0593Y-0506
X0596Y-0482
X0615Y-0519
X0626Y-0467
X0626Y-0515
X063Y-0508
X0637Y-0501
X0641Y-0509
X0644Y-0457
X0645Y-0516
X0652Y-0501
X066Y-0474
X0666Y-0458
T2
X0497Y-0481
X0498Y-0499
X0505Y-0506
X0517Y-0433
X0518Y-048
X052Y-0499
X052Y-0551
X0522Y-0415
X053Y-0441
X0552Y-049
X0553Y-0508
X0566Y-046
X0574Y-0461
X0582Y-0535
X0612Y-0472
X0612Y-0483
X0646Y-0479
X0656Y-0486
X0658Y-0517
X0659Y-0452
T3
X0485Y-042701
X0485Y-045299
X0509Y-0578
X0519Y-0578
X0529Y-0578
X0539Y-0578
X0549Y-0578
X0559Y-0578
X0569Y-0578
X0579Y-0578
X0589Y-0578
X0599Y-0578
X0609Y-0578
X0619Y-0578
X0629Y-0578
X0639Y-0578
X0649Y-0578
X0659Y-0578
T4
X0627Y-0526
X0627Y-0536
X0627Y-0546
X0637Y-0526
X0637Y-0536
X0637Y-0546
T5
X05072Y-052414
X05072Y-054186
X05328Y-052414
X05328Y-054186
X05492Y-052414
X05492Y-054186
X05748Y-052414
X05748Y-054186
T6
X077183Y-043551
X077183Y-053059
T0
M30
